<?xml version="1.0" encoding="UTF-8" standalone="no"?>
<!-- Created with Inkscape (http://www.inkscape.org/) -->

<svg
   xmlns:dc="http://purl.org/dc/elements/1.1/"
   xmlns:cc="http://creativecommons.org/ns#"
   xmlns:rdf="http://www.w3.org/1999/02/22-rdf-syntax-ns#"
   xmlns:svg="http://www.w3.org/2000/svg"
   xmlns="http://www.w3.org/2000/svg"
   xmlns:sodipodi="http://sodipodi.sourceforge.net/DTD/sodipodi-0.dtd"
   xmlns:inkscape="http://www.inkscape.org/namespaces/inkscape"
   width="210mm"
   height="297mm"
   viewBox="0 0 744.09448819 1052.3622047"
   id="svg3763"
   version="1.1"
   inkscape:version="0.91 r13725"
   sodipodi:docname="cameraclip1.svg">
  <defs
     id="defs3765" />
  <sodipodi:namedview
     id="base"
     pagecolor="#ffffff"
     bordercolor="#666666"
     borderopacity="1.0"
     inkscape:pageopacity="0.0"
     inkscape:pageshadow="2"
     inkscape:zoom="2.8"
     inkscape:cx="356.05618"
     inkscape:cy="325.36616"
     inkscape:document-units="mm"
     inkscape:current-layer="layer1"
     showgrid="false"
     inkscape:window-width="1366"
     inkscape:window-height="715"
     inkscape:window-x="0"
     inkscape:window-y="0"
     inkscape:window-maximized="1" />
  <metadata
     id="metadata3768">
    <rdf:RDF>
      <cc:Work
         rdf:about="">
        <dc:format>image/svg+xml</dc:format>
        <dc:type
           rdf:resource="http://purl.org/dc/dcmitype/StillImage" />
        <dc:title></dc:title>
      </cc:Work>
    </rdf:RDF>
  </metadata>
  <g
     inkscape:label="Layer 1"
     inkscape:groupmode="layer"
     id="layer1">
    <path
       inkscape:connector-curvature="0"
       id="path4029"
       style="fill:none;stroke:#ff0000"
       d="m 324.40358,677.65725 c 0,1.11044 -0.5924,2.13653 -1.55407,2.69175" />
    <path
       inkscape:connector-curvature="0"
       id="path4031"
       style="fill:none;stroke:#ff0000"
       d="m 322.84951,680.349 c -0.96167,0.55522 -2.1465,0.55522 -3.10817,0" />
    <path
       inkscape:connector-curvature="0"
       id="path4033"
       style="fill:none;stroke:#ff0000"
       d="m 319.74134,680.349 c -0.96167,-0.55522 -1.55408,-1.58131 -1.55408,-2.69175" />
    <path
       inkscape:connector-curvature="0"
       id="path4035"
       style="fill:none;stroke:#ff0000"
       d="m 318.18726,677.65725 c 0,-1.11044 0.59241,-2.13653 1.55408,-2.69175" />
    <path
       inkscape:connector-curvature="0"
       id="path4037"
       style="fill:none;stroke:#ff0000"
       d="m 319.74134,674.9655 c 0.96167,-0.55522 2.1465,-0.55522 3.10817,0" />
    <path
       inkscape:connector-curvature="0"
       id="path4039"
       style="fill:none;stroke:#ff0000"
       d="m 322.84951,674.9655 c 0.96167,0.55522 1.55407,1.58131 1.55407,2.69175" />
    <path
       inkscape:connector-curvature="0"
       id="path4041"
       style="fill:none;stroke:#ff0000"
       d="m 398.65021,677.74097 c 0,1.11044 -0.59242,2.13653 -1.55409,2.69175" />
    <path
       inkscape:connector-curvature="0"
       id="path4043"
       style="fill:none;stroke:#ff0000"
       d="m 397.09612,680.43272 c -0.96166,0.55521 -2.14649,0.55521 -3.10816,0" />
    <path
       inkscape:connector-curvature="0"
       id="path4045"
       style="fill:none;stroke:#ff0000"
       d="m 393.98796,680.43272 c -0.96166,-0.55522 -1.55408,-1.58131 -1.55408,-2.69175" />
    <path
       inkscape:connector-curvature="0"
       id="path4047"
       style="fill:none;stroke:#ff0000"
       d="m 392.43388,677.74097 c 0,-1.71659 1.39157,-3.10817 3.10816,-3.10817" />
    <path
       inkscape:connector-curvature="0"
       id="path4049"
       style="fill:none;stroke:#ff0000"
       d="m 395.54204,674.6328 c 1.71659,0 3.10817,1.39158 3.10817,3.10817" />
    <path
       inkscape:connector-curvature="0"
       id="path4051"
       style="fill:none;stroke:#ff0000"
       d="m 398.65021,722.02102 c 0,1.11044 -0.59242,2.13652 -1.55409,2.69175" />
    <path
       inkscape:connector-curvature="0"
       id="path4053"
       style="fill:none;stroke:#ff0000"
       d="m 397.09612,724.71277 c -0.96166,0.55521 -2.14649,0.55521 -3.10816,0" />
    <path
       inkscape:connector-curvature="0"
       id="path4055"
       style="fill:none;stroke:#ff0000"
       d="m 393.98796,724.71277 c -0.96166,-0.55523 -1.55408,-1.58131 -1.55408,-2.69175" />
    <path
       inkscape:connector-curvature="0"
       id="path4057"
       style="fill:none;stroke:#ff0000"
       d="m 392.43388,722.02102 c 0,-1.7166 1.39157,-3.10817 3.10816,-3.10817" />
    <path
       inkscape:connector-curvature="0"
       id="path4059"
       style="fill:none;stroke:#ff0000"
       d="m 395.54204,718.91285 c 1.71659,0 3.10817,1.39157 3.10817,3.10817" />
    <path
       inkscape:connector-curvature="0"
       id="path4061"
       style="fill:none;stroke:#ff0000"
       d="m 324.31988,721.93736 c 0,1.71659 -1.39156,3.10816 -3.10816,3.10816" />
    <path
       inkscape:connector-curvature="0"
       id="path4063"
       style="fill:none;stroke:#ff0000"
       d="m 321.21172,725.04552 c -1.71659,0 -3.10816,-1.39157 -3.10816,-3.10816" />
    <path
       inkscape:connector-curvature="0"
       id="path4065"
       style="fill:none;stroke:#ff0000"
       d="m 318.10356,721.93736 c 0,-1.71659 1.39157,-3.10817 3.10816,-3.10817" />
    <path
       inkscape:connector-curvature="0"
       id="path4067"
       style="fill:none;stroke:#ff0000"
       d="m 321.21172,718.82919 c 1.7166,0 3.10816,1.39158 3.10816,3.10817" />
    <path
       inkscape:connector-curvature="0"
       id="path4081"
       style="fill:none;stroke:#ff0000"
       d="m 371.09235,721.87884 c 0,4.50012 -2.43462,8.65839 -6.38678,10.90844" />
    <path
       inkscape:connector-curvature="0"
       id="path4083"
       style="fill:none;stroke:#ff0000"
       d="m 364.70557,732.78728 c -3.95214,2.25006 -8.82139,2.25006 -12.77355,0" />
    <path
       inkscape:connector-curvature="0"
       id="path4085"
       style="fill:none;stroke:#ff0000"
       d="m 351.93202,732.78728 c -3.95214,-2.25005 -6.38676,-6.40832 -6.38676,-10.90844" />
    <path
       inkscape:connector-curvature="0"
       id="path4087"
       style="fill:none;stroke:#ff0000"
       d="m 345.54526,721.87884 c 0,-4.50011 2.43462,-8.65838 6.38676,-10.90844" />
    <path
       inkscape:connector-curvature="0"
       id="path4089"
       style="fill:none;stroke:#ff0000"
       d="m 351.93202,710.9704 c 3.95216,-2.25005 8.82141,-2.25005 12.77355,0" />
    <path
       inkscape:connector-curvature="0"
       id="path4091"
       style="fill:none;stroke:#ff0000"
       d="m 364.70557,710.9704 c 3.95216,2.25006 6.38678,6.40833 6.38678,10.90844" />
    <path
       inkscape:connector-curvature="0"
       id="path4093"
       style="fill:none;stroke:#ff0000"
       d="m 344.595,707.97753 27.44758,0 0,27.44757 -27.44758,0 0,-27.44757 0,0 0,0 z" />
    <path
       inkscape:connector-curvature="0"
       id="path4095"
       style="fill:none;stroke:#000000;stroke-width:1.17754126"
       d="m 311.4514,656.29478 94.36918,0 0,109.71409 -94.36918,0 0,-109.71409 0,0 0,0 z" />
    <g
       id="g4137"
       transform="translate(-147.14286,5.8928572)">
      <path
         inkscape:connector-curvature="0"
         id="path4135"
         style="fill:none;fill-rule:evenodd;stroke:#000000;stroke-width:1px;stroke-linecap:butt;stroke-linejoin:miter;stroke-opacity:1"
         d="m 472.49885,722.67367 -8.46002,0 -5.3033,-3.40927 m 13.51079,-9.34391 -8.96511,0 -4.41942,3.40927 m 13.22067,-3.55395 a 5.3815875,6.3949704 0 0 1 4.66059,3.19748 5.3815875,6.3949704 0 0 1 0,6.39497 5.3815875,6.3949704 0 0 1 -4.66059,3.19749" />
    </g>
    <g
       id="g4144"
       transform="translate(-147.52167,-38.301317)">
      <path
         d="m 472.49885,722.67367 -8.46002,0 -5.3033,-3.40927 m 13.51079,-9.34391 -8.96511,0 -4.41942,3.40927 m 13.22067,-3.55395 a 5.3815875,6.3949704 0 0 1 4.66059,3.19748 5.3815875,6.3949704 0 0 1 0,6.39497 5.3815875,6.3949704 0 0 1 -4.66059,3.19749"
         style="fill:none;fill-rule:evenodd;stroke:#000000;stroke-width:1px;stroke-linecap:butt;stroke-linejoin:miter;stroke-opacity:1"
         id="path4146"
         inkscape:connector-curvature="0" />
    </g>
    <g
       transform="matrix(-1,0,0,1,864.92414,5.7665878)"
       id="g4148">
      <path
         inkscape:connector-curvature="0"
         id="path4150"
         style="fill:none;fill-rule:evenodd;stroke:#000000;stroke-width:1px;stroke-linecap:butt;stroke-linejoin:miter;stroke-opacity:1"
         d="m 472.49885,722.67367 -8.46002,0 -5.3033,-3.40927 m 13.51079,-9.34391 -8.96511,0 -4.41942,3.40927 m 13.22067,-3.55395 a 5.3815875,6.3949704 0 0 1 4.66059,3.19748 5.3815875,6.3949704 0 0 1 0,6.39497 5.3815875,6.3949704 0 0 1 -4.66059,3.19749" />
    </g>
    <g
       id="g4152"
       transform="matrix(-1,0,0,1,864.54534,-38.301317)">
      <path
         d="m 472.49885,722.67367 -8.46002,0 -5.3033,-3.40927 m 13.51079,-9.34391 -8.96511,0 -4.41942,3.40927 m 13.22067,-3.55395 a 5.3815875,6.3949704 0 0 1 4.66059,3.19748 5.3815875,6.3949704 0 0 1 0,6.39497 5.3815875,6.3949704 0 0 1 -4.66059,3.19749"
         style="fill:none;fill-rule:evenodd;stroke:#000000;stroke-width:1px;stroke-linecap:butt;stroke-linejoin:miter;stroke-opacity:1"
         id="path4154"
         inkscape:connector-curvature="0" />
    </g>
  </g>
</svg>
