<?xml version="1.0" encoding="UTF-8" standalone="no"?>
<svg
   xmlns:dc="http://purl.org/dc/elements/1.1/"
   xmlns:cc="http://creativecommons.org/ns#"
   xmlns:rdf="http://www.w3.org/1999/02/22-rdf-syntax-ns#"
   xmlns:svg="http://www.w3.org/2000/svg"
   xmlns="http://www.w3.org/2000/svg"
   xmlns:sodipodi="http://sodipodi.sourceforge.net/DTD/sodipodi-0.dtd"
   xmlns:inkscape="http://www.inkscape.org/namespaces/inkscape"
   width="744.094488189"
   height="1052.36220472"
   id="svg3390"
   version="1.1"
   inkscape:version="0.91 r13725"
   sodipodi:docname="fomoBox4.svg">
  <metadata
     id="metadata3734">
    <rdf:RDF>
      <cc:Work
         rdf:about="">
        <dc:format>image/svg+xml</dc:format>
        <dc:type
           rdf:resource="http://purl.org/dc/dcmitype/StillImage" />
        <dc:title></dc:title>
      </cc:Work>
    </rdf:RDF>
  </metadata>
  <sodipodi:namedview
     pagecolor="#ffffff"
     bordercolor="#666666"
     borderopacity="1"
     objecttolerance="10"
     gridtolerance="10"
     guidetolerance="10"
     inkscape:pageopacity="0"
     inkscape:pageshadow="2"
     inkscape:window-width="1366"
     inkscape:window-height="715"
     id="namedview3732"
     showgrid="false"
     inkscape:zoom="1.0091583"
     inkscape:cx="704.44377"
     inkscape:cy="684.72907"
     inkscape:window-x="0"
     inkscape:window-y="0"
     inkscape:window-maximized="1"
     inkscape:current-layer="g3412" />
  <desc
     id="desc3392">/home/drfraz/Pictures/does/Lightnight/fomoBox4.dxf - scale = 1.000000, origin = (0.000000, 0.000000), auto = True</desc>
  <defs
     id="defs3394">
    <marker
       id="DistanceX"
       orient="auto"
       refX="0.0"
       refY="0.0"
       style="overflow:visible">
      <path
         d="M 3,-3 L -3,3 M 0,-5 L  0,5"
         style="stroke:#000000; stroke-width:0.5"
         id="path3397" />
    </marker>
    <pattern
       height="8"
       id="Hatch"
       patternUnits="userSpaceOnUse"
       width="8"
       x="0"
       y="0">
      <path
         d="M8 4 l-4,4"
         linecap="square"
         stroke="#000000"
         stroke-width="0.25"
         id="path3400" />
      <path
         d="M6 2 l-4,4"
         linecap="square"
         stroke="#000000"
         stroke-width="0.25"
         id="path3402" />
      <path
         d="M4 0 l-4,4"
         linecap="square"
         stroke="#000000"
         stroke-width="0.25"
         id="path3404" />
    </pattern>
    <symbol
       id="*MODEL_SPACE" />
    <symbol
       id="*PAPER_SPACE" />
  </defs>
  <g
     inkscape:groupmode="layer"
     inkscape:label="0"
     id="g3408" />
  <g
     inkscape:groupmode="layer"
     inkscape:label="Layer_1"
     id="g3410" />
  <g
     inkscape:groupmode="layer"
     inkscape:label="newlayer"
     id="g3412">
    <path
       d="M 311.811027,311.811027 L 355.502530,311.811027 L 355.502530,322.440948 L 390.616707,322.440948 L 390.616707,311.811027 L 434.467658,311.811027 L 434.467658,322.440948 L 469.581835,322.440948 L 469.581835,311.811027 L 513.432787,311.811027 L 513.432787,322.440948 L 548.546963,322.440948 L 548.546963,311.811027 L 592.397915,311.811027 L 592.397915,322.440948 L 627.512092,322.440948 L 627.512092,311.811027 L 671.363043,311.811027 L 671.363043,322.440948 L 706.477220,322.440948 L 706.477220,311.811027 L 750.328182,311.811027 L 750.328182,322.440948 L 785.442348,322.440948 L 785.442348,311.811027 L 829.133858,311.811027 L 829.133858,352.718504 L 818.503941,352.718504 L 818.503941,387.832677 L 829.133858,387.832677 L 829.133858,428.899603 L 818.503941,428.899603 L 818.503941,464.013780 L 829.133858,464.013780 L 829.133858,505.080712 L 818.503941,505.080712 L 818.503941,540.194878 L 829.133858,540.194878 L 829.133858,581.102362 L 785.442348,581.102362 L 785.442348,570.472444 L 750.328182,570.472444 L 750.328182,581.102362 L 706.477220,581.102362 L 706.477220,570.472444 L 671.363043,570.472444 L 671.363043,581.102362 L 627.512092,581.102362 L 627.512092,570.472444 L 592.397915,570.472444 L 592.397915,581.102362 L 548.546963,581.102362 L 548.546963,570.472444 L 513.432787,570.472444 L 513.432787,581.102362 L 469.581835,581.102362 L 469.581835,570.472444 L 434.467658,570.472444 L 434.467658,581.102362 L 390.616707,581.102362 L 390.616707,570.472444 L 355.502530,570.472444 L 355.502530,581.102362 L 311.811027,581.102362 L 311.811027,540.194878 L 322.440948,540.194878 L 322.440948,505.080712 L 311.811027,505.080712 L 311.811027,464.013780 L 322.440948,464.013780 L 322.440948,428.899603 L 311.811027,428.899603 L 311.811027,387.832677 L 322.440948,387.832677 L 322.440948,352.718504 L 311.811027,352.718504 L 311.811027,311.811027 L 311.811027,311.811027 L 311.811027,311.811027 z"
       style="stroke:#000000;fill:none"
       id="path3414" />
    <path
       d="M 1184.545594,317.756580 L 1228.237030,317.756580 L 1228.237030,328.386497 L 1263.351281,328.386497 L 1263.351281,317.756580 L 1307.202187,317.756580 L 1307.202187,328.386497 L 1342.316342,328.386497 L 1342.316342,317.756580 L 1386.167343,317.756580 L 1386.167343,328.386497 L 1421.281499,328.386497 L 1421.281499,317.756580 L 1465.132500,317.756580 L 1465.132500,328.386497 L 1500.246656,328.386497 L 1500.246656,317.756580 L 1544.097561,317.756580 L 1544.097561,328.386497 L 1579.211812,328.386497 L 1579.211812,317.756580 L 1623.062718,317.756580 L 1623.062718,328.386497 L 1658.176873,328.386497 L 1658.176873,317.756580 L 1701.868408,317.756580 L 1701.868408,358.664053 L 1691.238469,358.664053 L 1691.238469,393.778230 L 1701.868408,393.778230 L 1701.868408,434.845152 L 1691.238469,434.845152 L 1691.238469,469.959328 L 1701.868408,469.959328 L 1701.868408,511.026261 L 1691.238469,511.026261 L 1691.238469,546.140427 L 1701.868408,546.140427 L 1701.868408,587.047911 L 1658.176873,587.047911 L 1658.176873,576.417993 L 1623.062718,576.417993 L 1623.062718,587.047911 L 1579.211812,587.047911 L 1579.211812,576.417993 L 1544.097561,576.417993 L 1544.097561,587.047911 L 1500.246656,587.047911 L 1500.246656,576.417993 L 1465.132500,576.417993 L 1465.132500,587.047911 L 1421.281499,587.047911 L 1421.281499,576.417993 L 1386.167343,576.417993 L 1386.167343,587.047911 L 1342.316342,587.047911 L 1342.316342,576.417993 L 1307.202187,576.417993 L 1307.202187,587.047911 L 1263.351281,587.047911 L 1263.351281,576.417993 L 1228.237030,576.417993 L 1228.237030,587.047911 L 1184.545594,587.047911 L 1184.545594,546.140427 L 1195.175530,546.140427 L 1195.175530,511.026261 L 1184.545594,511.026261 L 1184.545594,469.959328 L 1195.175530,469.959328 L 1195.175530,434.845152 L 1184.545594,434.845152 L 1184.545594,393.778230 L 1195.175530,393.778230 L 1195.175530,358.664053 L 1184.545594,358.664053 L 1184.545594,317.756580 L 1184.545594,317.756580 L 1184.545594,317.756580 z"
       style="stroke:#000000;fill:none"
       id="path3416" />
    <path
       d="M 311.811027,14.173228 L 355.183632,14.173228 L 355.183632,3.543307 L 390.935597,3.543307 L 390.935597,14.173228 L 434.148761,14.173228 L 434.148761,3.543307 L 469.900733,3.543307 L 469.900733,14.173228 L 513.113896,14.173228 L 513.113896,3.543307 L 548.865861,3.543307 L 548.865861,14.173228 L 592.079024,14.173228 L 592.079024,3.543307 L 627.830989,3.543307 L 627.830989,14.173228 L 671.044153,14.173228 L 671.044153,3.543307 L 706.796118,3.543307 L 706.796118,14.173228 L 750.009281,14.173228 L 750.009281,3.543307 L 785.761246,3.543307 L 785.761246,14.173228 L 829.133858,14.173228 L 829.133858,53.309055 L 818.503941,53.309055 L 818.503941,88.423228 L 829.133858,88.423228 L 829.133858,138.348422 L 818.503941,138.348422 L 818.503941,173.462598 L 829.133858,173.462598 L 829.133858,223.387792 L 818.503941,223.387792 L 818.503941,258.501965 L 829.133858,258.501965 L 829.133858,297.637799 L 785.761246,297.637799 L 785.761246,308.267720 L 750.009281,308.267720 L 750.009281,297.637799 L 706.796118,297.637799 L 706.796118,308.267720 L 671.044153,308.267720 L 671.044153,297.637799 L 627.830989,297.637799 L 627.830989,308.267720 L 592.079024,308.267720 L 592.079024,297.637799 L 548.865861,297.637799 L 548.865861,308.267720 L 513.113896,308.267720 L 513.113896,297.637799 L 469.900733,297.637799 L 469.900733,308.267720 L 434.148761,308.267720 L 434.148761,297.637799 L 390.935597,297.637799 L 390.935597,308.267720 L 355.183632,308.267720 L 355.183632,297.637799 L 311.811027,297.637799 L 311.811027,258.501965 L 322.440948,258.501965 L 322.440948,223.387792 L 311.811027,223.387792 L 311.811027,173.462598 L 322.440948,173.462598 L 322.440948,138.348422 L 311.811027,138.348422 L 311.811027,88.423228 L 322.440948,88.423228 L 322.440948,53.309055 L 311.811027,53.309055 L 311.811027,14.173228 L 311.811027,14.173228 L 311.811027,14.173228 z"
       style="stroke:#000000;fill:none"
       id="path3418" />
    <path
       d="M 349.161909,347.676506 L 493.811578,347.676506 L 493.811578,547.639632 L 349.161909,547.639632 L 349.161909,347.676506 L 349.161909,347.676506 L 349.161909,347.676506 z"
       style="stroke:#000000;fill:none"
       id="path3420" />
    <path
       d="M 638.153589,347.448908 L 785.841619,347.448908 L 785.841619,547.867230 L 638.153589,547.867230 L 638.153589,347.448908 L 638.153589,347.448908 L 638.153589,347.448908 z"
       style="stroke:#000000;fill:none"
       id="path3422" />
    <path
       d="M 849.415181,6.433508 L 892.787783,6.433508 L 892.787783,-4.196409 L 928.539751,-4.196409 L 928.539751,6.433508 L 971.752876,6.433508 L 971.752876,-4.196409 L 1007.504908,-4.196409 L 1007.504908,6.433508 L 1050.718032,6.433508 L 1050.718032,-4.196409 L 1086.469969,-4.196409 L 1086.469969,6.433508 L 1129.683189,6.433508 L 1129.683189,-4.196409 L 1165.435126,-4.196409 L 1165.435126,6.433508 L 1208.648342,6.433508 L 1208.648342,-4.196409 L 1244.400282,-4.196409 L 1244.400282,6.433508 L 1287.613407,6.433508 L 1287.613407,-4.196409 L 1323.365439,-4.196409 L 1323.365439,6.433508 L 1366.738030,6.433508 L 1366.738030,45.569335 L 1356.108094,45.569335 L 1356.108094,80.683508 L 1366.738030,80.683508 L 1366.738030,130.608702 L 1356.108094,130.608702 L 1356.108094,165.722878 L 1366.738030,165.722878 L 1366.738030,215.648072 L 1356.108094,215.648072 L 1356.108094,250.762248 L 1366.738030,250.762248 L 1366.738030,289.898082 L 1323.365439,289.898082 L 1323.365439,300.528000 L 1287.613407,300.528000 L 1287.613407,289.898082 L 1244.400282,289.898082 L 1244.400282,300.528000 L 1208.648342,300.528000 L 1208.648342,289.898082 L 1165.435126,289.898082 L 1165.435126,300.528000 L 1129.683189,300.528000 L 1129.683189,289.898082 L 1086.469969,289.898082 L 1086.469969,300.528000 L 1050.718032,300.528000 L 1050.718032,289.898082 L 1007.504908,289.898082 L 1007.504908,300.528000 L 971.752876,300.528000 L 971.752876,289.898082 L 928.539751,289.898082 L 928.539751,300.528000 L 892.787783,300.528000 L 892.787783,289.898082 L 849.415181,289.898082 L 849.415181,250.762248 L 860.045099,250.762248 L 860.045099,215.648072 L 849.415181,215.648072 L 849.415181,165.722878 L 860.045099,165.722878 L 860.045099,130.608702 L 849.415181,130.608702 L 849.415181,80.683508 L 860.045099,80.683508 L 860.045099,45.569335 L 849.415181,45.569335 L 849.415181,6.433508 L 849.415181,6.433508 L 849.415181,6.433508 z"
       style="stroke:#000000;fill:none"
       id="path3424" />
    <path
       d="M 867.089289,334.332046 L 905.906204,334.332046 L 905.906204,323.702128 L 941.658187,323.702128 L 941.658187,334.332046 L 990.945563,334.332046 L 990.945563,323.702128 L 1026.697592,323.702128 L 1026.697592,334.332046 L 1075.984969,334.332046 L 1075.984969,323.702128 L 1111.736906,323.702128 L 1111.736906,334.332046 L 1150.553906,334.332046 L 1150.553906,364.290704 L 1161.183749,364.290704 L 1161.183749,400.042680 L 1150.553906,400.042680 L 1150.553906,440.471813 L 1161.183749,440.471813 L 1161.183749,476.223778 L 1150.553906,476.223778 L 1150.553906,516.652912 L 1161.183749,516.652912 L 1161.183749,552.404877 L 1150.553906,552.404877 L 1150.553906,582.363542 L 1111.736906,582.363542 L 1111.736906,592.993463 L 1075.984969,592.993463 L 1075.984969,582.363542 L 1026.697592,582.363542 L 1026.697592,592.993463 L 990.945563,592.993463 L 990.945563,582.363542 L 941.658187,582.363542 L 941.658187,592.993463 L 905.906204,592.993463 L 905.906204,582.363542 L 867.089289,582.363542 L 867.089289,552.404877 L 856.459361,552.404877 L 856.459361,516.652912 L 867.089289,516.652912 L 867.089289,476.223778 L 856.459361,476.223778 L 856.459361,440.471813 L 867.089289,440.471813 L 867.089289,400.042680 L 856.459361,400.042680 L 856.459361,364.290704 L 867.089289,364.290704 L 867.089289,334.332046 L 867.089289,334.332046 L 867.089289,334.332046 z"
       style="stroke:#000000;fill:none"
       id="path3426" />
    <path
       d="M 904.563188,363.678367 L 928.096838,363.678367 L 928.096838,552.201374 L 904.563188,552.201374 L 904.563188,363.678367 L 904.563188,363.678367 L 904.563188,363.678367 z"
       style="stroke:#000000;fill:none"
       id="path3428" />
    <path
       d="M 951.465657,363.678367 L 974.999250,363.678367 L 974.999250,552.201374 L 951.465657,552.201374 L 951.465657,363.678367 L 951.465657,363.678367 L 951.465657,363.678367 z"
       style="stroke:#000000;fill:none"
       id="path3430" />
    <path
       d="M 998.368030,363.678357 L 1021.901623,363.678357 L 1021.901623,552.201374 L 998.368030,552.201374 L 998.368030,363.678357 L 998.368030,363.678357 L 998.368030,363.678357 z"
       style="stroke:#000000;fill:none"
       id="path3432" />
    <path
       d="M 1045.270407,363.678367 L 1068.804000,363.678367 L 1068.804000,552.201374 L 1045.270407,552.201374 L 1045.270407,363.678367 L 1045.270407,363.678367 L 1045.270407,363.678367 z"
       style="stroke:#000000;fill:none"
       id="path3434" />
    <path
       d="M 1092.172876,363.678357 L 1115.706469,363.678357 L 1115.706469,552.201374 L 1092.172876,552.201374 L 1092.172876,363.678357 L 1092.172876,363.678357 L 1092.172876,363.678357 z"
       style="stroke:#000000;fill:none"
       id="path3436" />
    <path
       d="M 1393.168968,16.988361 L 1431.985876,16.988361 L 1431.985876,6.358443 L 1467.737908,6.358443 L 1467.737908,16.988361 L 1517.025281,16.988361 L 1517.025281,6.358443 L 1552.777218,6.358443 L 1552.777218,16.988361 L 1602.064687,16.988361 L 1602.064687,6.358443 L 1637.816627,6.358443 L 1637.816627,16.988361 L 1676.633531,16.988361 L 1676.633531,46.947019 L 1687.263470,46.947019 L 1687.263470,82.698994 L 1676.633531,82.698994 L 1676.633531,123.128128 L 1687.263470,123.128128 L 1687.263470,158.880093 L 1676.633531,158.880093 L 1676.633531,199.309227 L 1687.263470,199.309227 L 1687.263470,235.061192 L 1676.633531,235.061192 L 1676.633531,265.019861 L 1637.816627,265.019861 L 1637.816627,275.649778 L 1602.064687,275.649778 L 1602.064687,265.019861 L 1552.777218,265.019861 L 1552.777218,275.649778 L 1517.025281,275.649778 L 1517.025281,265.019861 L 1467.737908,265.019861 L 1467.737908,275.649778 L 1431.985876,275.649778 L 1431.985876,265.019861 L 1393.168968,265.019861 L 1393.168968,235.061192 L 1382.539032,235.061192 L 1382.539032,199.309227 L 1393.168968,199.309227 L 1393.168968,158.880093 L 1382.539032,158.880093 L 1382.539032,123.128128 L 1393.168968,123.128128 L 1393.168968,82.698994 L 1382.539032,82.698994 L 1382.539032,46.947019 L 1393.168968,46.947019 L 1393.168968,16.988361 L 1393.168968,16.988361 L 1393.168968,16.988361 z"
       style="stroke:#000000;fill:none"
       id="path3438" />
    <path
       d="M 1428.933937,44.758130 L 1452.467626,44.758130 L 1452.467626,233.281144 L 1428.933937,233.281144 L 1428.933937,44.758130 L 1428.933937,44.758130 L 1428.933937,44.758130 z"
       style="stroke:#000000;fill:none"
       id="path3440" />
    <path
       d="M 1475.836406,44.758130 L 1499.369999,44.758130 L 1499.369999,233.281144 L 1475.836406,233.281144 L 1475.836406,44.758130 L 1475.836406,44.758130 L 1475.836406,44.758130 z"
       style="stroke:#000000;fill:none"
       id="path3442" />
    <path
       d="M 1522.738782,44.758120 L 1546.272376,44.758120 L 1546.272376,233.281144 L 1522.738782,233.281144 L 1522.738782,44.758120 L 1522.738782,44.758120 L 1522.738782,44.758120 z"
       style="stroke:#000000;fill:none"
       id="path3444" />
    <path
       d="M 1569.641156,44.758130 L 1593.174749,44.758130 L 1593.174749,233.281144 L 1569.641156,233.281144 L 1569.641156,44.758130 L 1569.641156,44.758130 L 1569.641156,44.758130 z"
       style="stroke:#000000;fill:none"
       id="path3446" />
    <path
       d="M 1616.543624,44.758120 L 1640.077218,44.758120 L 1640.077218,233.281144 L 1616.543624,233.281144 L 1616.543624,44.758120 L 1616.543624,44.758120 L 1616.543624,44.758120 z"
       style="stroke:#000000;fill:none"
       id="path3448" />
    <path
       d="M 352.636143,58.548639 L 375.748080,58.548639 L 375.748080,247.071646 L 352.636143,247.071646 L 352.636143,58.548639 L 352.636143,58.548639 L 352.636143,58.548639 z"
       style="stroke:#000000;fill:none"
       id="path3450" />
    <path
       d="M 403.730082,58.548639 L 426.841930,58.548639 L 426.841930,247.071646 L 403.730082,247.071646 L 403.730082,58.548639 L 403.730082,58.548639 L 403.730082,58.548639 z"
       style="stroke:#000000;fill:none"
       id="path3452" />
    <path
       d="M 454.824000,58.548628 L 477.935880,58.548628 L 477.935880,247.071646 L 454.824000,247.071646 L 454.824000,58.548628 L 454.824000,58.548628 L 454.824000,58.548628 z"
       style="stroke:#000000;fill:none"
       id="path3454" />
    <path
       d="M 505.917833,58.548639 L 529.029712,58.548639 L 529.029712,247.071646 L 505.917833,247.071646 L 505.917833,58.548639 L 505.917833,58.548639 L 505.917833,58.548639 z"
       style="stroke:#000000;fill:none"
       id="path3456" />
    <path
       d="M 557.011754,58.548628 L 580.123641,58.548628 L 580.123641,247.071646 L 557.011754,247.071646 L 557.011754,58.548628 L 557.011754,58.548628 L 557.011754,58.548628 z"
       style="stroke:#000000;fill:none"
       id="path3458" />
    <path
       d="M 608.105700,56.972073 L 631.217633,56.972073 L 631.217633,245.495080 L 608.105700,245.495080 L 608.105700,56.972073 L 608.105700,56.972073 L 608.105700,56.972073 z"
       style="stroke:#000000;fill:none"
       id="path3460" />
    <path
       d="M 659.199628,56.972073 L 682.311487,56.972073 L 682.311487,245.495080 L 659.199628,245.495080 L 659.199628,56.972073 L 659.199628,56.972073 L 659.199628,56.972073 z"
       style="stroke:#000000;fill:none"
       id="path3462" />
    <path
       d="M 710.293574,56.972073 L 733.405454,56.972073 L 733.405454,245.495080 L 710.293574,245.495080 L 710.293574,56.972073 L 710.293574,56.972073 L 710.293574,56.972073 z"
       style="stroke:#000000;fill:none"
       id="path3464" />
    <path
       d="M 761.387446,56.972062 L 784.499326,56.972062 L 784.499326,245.495080 L 761.387446,245.495080 L 761.387446,56.972062 L 761.387446,56.972062 L 761.387446,56.972062 z"
       style="stroke:#000000;fill:none"
       id="path3466" />
    <path
       d="M 891.816842,63.278291 L 914.928778,63.278291 L 914.928778,251.801298 L 891.816842,251.801298 L 891.816842,63.278291 L 891.816842,63.278291 L 891.816842,63.278291 z"
       style="stroke:#000000;fill:none"
       id="path3468" />
    <path
       d="M 942.910781,63.278291 L 966.022593,63.278291 L 966.022593,251.801298 L 942.910781,251.801298 L 942.910781,63.278291 L 942.910781,63.278291 L 942.910781,63.278291 z"
       style="stroke:#000000;fill:none"
       id="path3470" />
    <path
       d="M 994.004720,63.278284 L 1017.116624,63.278284 L 1017.116624,251.801298 L 994.004720,251.801298 L 994.004720,63.278284 L 994.004720,63.278284 L 994.004720,63.278284 z"
       style="stroke:#000000;fill:none"
       id="path3472" />
    <path
       d="M 1045.098563,63.278291 L 1068.210376,63.278291 L 1068.210376,251.801298 L 1045.098563,251.801298 L 1045.098563,63.278291 L 1045.098563,63.278291 L 1045.098563,63.278291 z"
       style="stroke:#000000;fill:none"
       id="path3474" />
    <path
       d="M 1096.192499,63.278284 L 1119.304311,63.278284 L 1119.304311,251.801298 L 1096.192499,251.801298 L 1096.192499,63.278284 L 1096.192499,63.278284 L 1096.192499,63.278284 z"
       style="stroke:#000000;fill:none"
       id="path3476" />
    <path
       d="M 1147.286438,61.701729 L 1170.398342,61.701729 L 1170.398342,250.224732 L 1147.286438,250.224732 L 1147.286438,61.701729 L 1147.286438,61.701729 L 1147.286438,61.701729 z"
       style="stroke:#000000;fill:none"
       id="path3478" />
    <path
       d="M 1198.380281,61.701729 L 1221.492189,61.701729 L 1221.492189,250.224732 L 1198.380281,250.224732 L 1198.380281,61.701729 L 1198.380281,61.701729 L 1198.380281,61.701729 z"
       style="stroke:#000000;fill:none"
       id="path3480" />
    <path
       d="M 532.281030,412.891239 C 532.281030,414.001680 531.688620,415.027772 530.726953,415.582987"
       style="stroke:#000000;fill:none"
       id="path3482" />
    <path
       d="M 530.726953,415.582987 C 529.765285,416.138202 528.580453,416.138202 527.618785,415.582987"
       style="stroke:#000000;fill:none"
       id="path3484" />
    <path
       d="M 527.618785,415.582987 C 526.657117,415.027772 526.064701,414.001680 526.064701,412.891239"
       style="stroke:#000000;fill:none"
       id="path3486" />
    <path
       d="M 526.064701,412.891239 C 526.064701,411.780798 526.657117,410.754713 527.618785,410.199488"
       style="stroke:#000000;fill:none"
       id="path3488" />
    <path
       d="M 527.618785,410.199488 C 528.580453,409.644273 529.765285,409.644273 530.726953,410.199488"
       style="stroke:#000000;fill:none"
       id="path3490" />
    <path
       d="M 530.726953,410.199488 C 531.688620,410.754713 532.281030,411.780798 532.281030,412.891239"
       style="stroke:#000000;fill:none"
       id="path3492" />
    <path
       d="M 606.527653,412.974957 C 606.527653,414.085397 605.935237,415.111489 604.973569,415.666708"
       style="stroke:#000000;fill:none"
       id="path3494" />
    <path
       d="M 604.973569,415.666708 C 604.011901,416.221923 602.827080,416.221923 601.865408,415.666708"
       style="stroke:#000000;fill:none"
       id="path3496" />
    <path
       d="M 601.865408,415.666708 C 600.903741,415.111489 600.311324,414.085397 600.311324,412.974957"
       style="stroke:#000000;fill:none"
       id="path3498" />
    <path
       d="M 600.311324,412.974957 C 600.311324,411.258366 601.702894,409.866789 603.419485,409.866789"
       style="stroke:#000000;fill:none"
       id="path3500" />
    <path
       d="M 603.419485,409.866789 C 605.136076,409.866789 606.527653,411.258366 606.527653,412.974957"
       style="stroke:#000000;fill:none"
       id="path3502" />
    <path
       d="M 606.527653,457.255003 C 606.527653,458.365443 605.935237,459.391528 604.973569,459.946754"
       style="stroke:#000000;fill:none"
       id="path3504" />
    <path
       d="M 604.973569,459.946754 C 604.011901,460.501969 602.827080,460.501969 601.865408,459.946754"
       style="stroke:#000000;fill:none"
       id="path3506" />
    <path
       d="M 601.865408,459.946754 C 600.903741,459.391528 600.311324,458.365443 600.311324,457.255003"
       style="stroke:#000000;fill:none"
       id="path3508" />
    <path
       d="M 600.311324,457.255003 C 600.311324,455.538412 601.702894,454.146835 603.419485,454.146835"
       style="stroke:#000000;fill:none"
       id="path3510" />
    <path
       d="M 603.419485,454.146835 C 605.136076,454.146835 606.527653,455.538412 606.527653,457.255003"
       style="stroke:#000000;fill:none"
       id="path3512" />
    <path
       d="M 532.197330,457.171349 C 532.197330,458.887939 530.805759,460.279509 529.089169,460.279509"
       style="stroke:#000000;fill:none"
       id="path3514" />
    <path
       d="M 529.089169,460.279509 C 527.372578,460.279509 525.981008,458.887939 525.981008,457.171349"
       style="stroke:#000000;fill:none"
       id="path3516" />
    <path
       d="M 525.981008,457.171349 C 525.981008,455.454758 527.372578,454.063181 529.089169,454.063181"
       style="stroke:#000000;fill:none"
       id="path3518" />
    <path
       d="M 529.089169,454.063181 C 530.805759,454.063181 532.197330,455.454758 532.197330,457.171349"
       style="stroke:#000000;fill:none"
       id="path3520" />
    <path
       d="M 569.357203,457.255031 C 569.357203,458.365461 568.764797,459.391557 567.803130,459.946772"
       style="stroke:#FF0000;fill:none"
       id="path3522" />
    <path
       d="M 567.803130,459.946772 C 566.841458,460.501997 565.656630,460.501997 564.694958,459.946772"
       style="stroke:#FF0000;fill:none"
       id="path3524" />
    <path
       d="M 564.694958,459.946772 C 563.733291,459.391557 563.140874,458.365461 563.140874,457.255031"
       style="stroke:#FF0000;fill:none"
       id="path3526" />
    <path
       d="M 563.140874,457.255031 C 563.140874,456.144591 563.733291,455.118498 564.694958,454.563280"
       style="stroke:#FF0000;fill:none"
       id="path3528" />
    <path
       d="M 564.694958,454.563280 C 565.656630,454.008058 566.841458,454.008058 567.803130,454.563280"
       style="stroke:#FF0000;fill:none"
       id="path3530" />
    <path
       d="M 567.803130,454.563280 C 568.764797,455.118498 569.357203,456.144591 569.357203,457.255031"
       style="stroke:#FF0000;fill:none"
       id="path3532" />
    <path
       d="M 578.969794,457.112831 C 578.969794,461.612944 576.535170,465.771217 572.583019,468.021270"
       style="stroke:#FF0000;fill:none"
       id="path3534" />
    <path
       d="M 572.583019,468.021270 C 568.630874,470.271327 563.761623,470.271327 559.809468,468.021270"
       style="stroke:#FF0000;fill:none"
       id="path3536" />
    <path
       d="M 559.809468,468.021270 C 555.857327,465.771217 553.422703,461.612944 553.422703,457.112831"
       style="stroke:#FF0000;fill:none"
       id="path3538" />
    <path
       d="M 553.422703,457.112831 C 553.422703,452.612718 555.857327,448.454448 559.809468,446.204392"
       style="stroke:#FF0000;fill:none"
       id="path3540" />
    <path
       d="M 559.809468,446.204392 C 563.761623,443.954335 568.630874,443.954335 572.583019,446.204392"
       style="stroke:#FF0000;fill:none"
       id="path3542" />
    <path
       d="M 572.583019,446.204392 C 576.535170,448.454448 578.969794,452.612718 578.969794,457.112831"
       style="stroke:#FF0000;fill:none"
       id="path3544" />
    <path
       d="M 1249.474312,61.701729 L 1272.586124,61.701729 L 1272.586124,250.224732 L 1249.474312,250.224732 L 1249.474312,61.701729 L 1249.474312,61.701729 L 1249.474312,61.701729 z"
       style="stroke:#000000;fill:none"
       id="path3546" />
    <path
       d="M 681.160192,412.480782 C 681.160192,413.591223 680.567783,414.617315 679.606115,415.172530"
       style="stroke:#000000;fill:none"
       id="path3548" />
    <path
       d="M 679.606115,415.172530 C 678.644447,415.727748 677.459615,415.727748 676.497947,415.172530"
       style="stroke:#000000;fill:none"
       id="path3550" />
    <path
       d="M 676.497947,415.172530 C 675.536280,414.617315 674.943863,413.591223 674.943863,412.480782"
       style="stroke:#000000;fill:none"
       id="path3552" />
    <path
       d="M 674.943863,412.480782 C 674.943863,411.370342 675.536280,410.344257 676.497947,409.789031"
       style="stroke:#000000;fill:none"
       id="path3554" />
    <path
       d="M 676.497947,409.789031 C 677.459615,409.233816 678.644447,409.233816 679.606115,409.789031"
       style="stroke:#000000;fill:none"
       id="path3556" />
    <path
       d="M 679.606115,409.789031 C 680.567783,410.344257 681.160192,411.370342 681.160192,412.480782"
       style="stroke:#000000;fill:none"
       id="path3558" />
    <path
       d="M 755.406815,412.564500 C 755.406815,413.674941 754.814399,414.701033 753.852731,415.256251"
       style="stroke:#000000;fill:none"
       id="path3560" />
    <path
       d="M 753.852731,415.256251 C 752.891063,415.811466 751.706242,415.811466 750.744570,415.256251"
       style="stroke:#000000;fill:none"
       id="path3562" />
    <path
       d="M 750.744570,415.256251 C 749.782903,414.701033 749.190487,413.674941 749.190487,412.564500"
       style="stroke:#000000;fill:none"
       id="path3564" />
    <path
       d="M 749.190487,412.564500 C 749.190487,410.847909 750.582057,409.456332 752.298647,409.456332"
       style="stroke:#000000;fill:none"
       id="path3566" />
    <path
       d="M 752.298647,409.456332 C 754.015238,409.456332 755.406815,410.847909 755.406815,412.564500"
       style="stroke:#000000;fill:none"
       id="path3568" />
    <path
       d="M 755.406815,456.844546 C 755.406815,457.954987 754.814399,458.981072 753.852731,459.536297"
       style="stroke:#000000;fill:none"
       id="path3570" />
    <path
       d="M 753.852731,459.536297 C 752.891063,460.091512 751.706242,460.091512 750.744570,459.536297"
       style="stroke:#000000;fill:none"
       id="path3572" />
    <path
       d="M 750.744570,459.536297 C 749.782903,458.981072 749.190487,457.954987 749.190487,456.844546"
       style="stroke:#000000;fill:none"
       id="path3574" />
    <path
       d="M 749.190487,456.844546 C 749.190487,455.127956 750.582057,453.736378 752.298647,453.736378"
       style="stroke:#000000;fill:none"
       id="path3576" />
    <path
       d="M 752.298647,453.736378 C 754.015238,453.736378 755.406815,455.127956 755.406815,456.844546"
       style="stroke:#000000;fill:none"
       id="path3578" />
    <path
       d="M 681.076492,456.760892 C 681.076492,458.477483 679.684922,459.869053 677.968331,459.869053"
       style="stroke:#000000;fill:none"
       id="path3580" />
    <path
       d="M 677.968331,459.869053 C 676.251741,459.869053 674.860170,458.477483 674.860170,456.760892"
       style="stroke:#000000;fill:none"
       id="path3582" />
    <path
       d="M 674.860170,456.760892 C 674.860170,455.044302 676.251741,453.652724 677.968331,453.652724"
       style="stroke:#000000;fill:none"
       id="path3584" />
    <path
       d="M 677.968331,453.652724 C 679.684922,453.652724 681.076492,455.044302 681.076492,456.760892"
       style="stroke:#000000;fill:none"
       id="path3586" />
    <path
       d="M 718.236365,456.844574 C 718.236365,457.955008 717.643959,458.981100 716.682292,459.536315"
       style="stroke:#FF0000;fill:none"
       id="path3588" />
    <path
       d="M 716.682292,459.536315 C 715.720620,460.091541 714.535792,460.091541 713.574120,459.536315"
       style="stroke:#FF0000;fill:none"
       id="path3590" />
    <path
       d="M 713.574120,459.536315 C 712.612453,458.981100 712.020037,457.955008 712.020037,456.844574"
       style="stroke:#FF0000;fill:none"
       id="path3592" />
    <path
       d="M 712.020037,456.844574 C 712.020037,455.734134 712.612453,454.708042 713.574120,454.152823"
       style="stroke:#FF0000;fill:none"
       id="path3594" />
    <path
       d="M 713.574120,454.152823 C 714.535792,453.597601 715.720620,453.597601 716.682292,454.152823"
       style="stroke:#FF0000;fill:none"
       id="path3596" />
    <path
       d="M 716.682292,454.152823 C 717.643959,454.708042 718.236365,455.734134 718.236365,456.844574"
       style="stroke:#FF0000;fill:none"
       id="path3598" />
    <path
       d="M 1300.568156,61.701718 L 1323.680063,61.701718 L 1323.680063,250.224732 L 1300.568156,250.224732 L 1300.568156,61.701718 L 1300.568156,61.701718 L 1300.568156,61.701718 z"
       style="stroke:#000000;fill:none"
       id="path3600" />
    <path
       d="M 727.848957,456.702374 C 727.848957,461.202488 725.414333,465.360761 721.462181,467.610817"
       style="stroke:#FF0000;fill:none"
       id="path3602" />
    <path
       d="M 721.462181,467.610817 C 717.510037,469.860870 712.640785,469.860870 708.688630,467.610817"
       style="stroke:#FF0000;fill:none"
       id="path3604" />
    <path
       d="M 708.688630,467.610817 C 704.736489,465.360761 702.301865,461.202488 702.301865,456.702374"
       style="stroke:#FF0000;fill:none"
       id="path3606" />
    <path
       d="M 702.301865,456.702374 C 702.301865,452.202261 704.736489,448.043992 708.688630,445.793935"
       style="stroke:#FF0000;fill:none"
       id="path3608" />
    <path
       d="M 708.688630,445.793935 C 712.640785,443.543878 717.510037,443.543878 721.462181,445.793935"
       style="stroke:#FF0000;fill:none"
       id="path3610" />
    <path
       d="M 721.462181,445.793935 C 725.414333,448.043992 727.848957,452.202261 727.848957,456.702374"
       style="stroke:#FF0000;fill:none"
       id="path3612" />
    <path
       d="M 552.472444,443.211516 L 579.920024,443.211516 L 579.920024,470.659089 L 552.472444,470.659089 L 552.472444,443.211516 L 552.472444,443.211516 L 552.472444,443.211516 z"
       style="stroke:#FF0000;fill:none"
       id="path3614" />
    <path
       d="M 386.615502,411.404850 C 386.615502,412.515291 386.023096,413.541383 385.061428,414.096601"
       style="stroke:#000000;fill:none"
       id="path3616" />
    <path
       d="M 385.061428,414.096601 C 384.099761,414.651816 382.914928,414.651816 381.953261,414.096601"
       style="stroke:#000000;fill:none"
       id="path3618" />
    <path
       d="M 381.953261,414.096601 C 380.991589,413.541383 380.399177,412.515291 380.399177,411.404850"
       style="stroke:#000000;fill:none"
       id="path3620" />
    <path
       d="M 380.399177,411.404850 C 380.399177,410.294409 380.991589,409.268324 381.953261,408.713099"
       style="stroke:#000000;fill:none"
       id="path3622" />
    <path
       d="M 381.953261,408.713099 C 382.914928,408.157884 384.099761,408.157884 385.061428,408.713099"
       style="stroke:#000000;fill:none"
       id="path3624" />
    <path
       d="M 385.061428,408.713099 C 386.023096,409.268324 386.615502,410.294409 386.615502,411.404850"
       style="stroke:#000000;fill:none"
       id="path3626" />
    <path
       d="M 460.862128,411.488568 C 460.862128,412.599008 460.269712,413.625104 459.308044,414.180319"
       style="stroke:#000000;fill:none"
       id="path3628" />
    <path
       d="M 459.308044,414.180319 C 458.346377,414.735534 457.161552,414.735534 456.199884,414.180319"
       style="stroke:#000000;fill:none"
       id="path3630" />
    <path
       d="M 456.199884,414.180319 C 455.238216,413.625104 454.645800,412.599008 454.645800,411.488568"
       style="stroke:#000000;fill:none"
       id="path3632" />
    <path
       d="M 454.645800,411.488568 C 454.645800,409.771977 456.037370,408.380400 457.753961,408.380400"
       style="stroke:#000000;fill:none"
       id="path3634" />
    <path
       d="M 457.753961,408.380400 C 459.470551,408.380400 460.862128,409.771977 460.862128,411.488568"
       style="stroke:#000000;fill:none"
       id="path3636" />
    <path
       d="M 460.862128,455.768617 C 460.862128,456.879058 460.269712,457.905139 459.308044,458.460365"
       style="stroke:#000000;fill:none"
       id="path3638" />
    <path
       d="M 459.308044,458.460365 C 458.346377,459.015580 457.161552,459.015580 456.199884,458.460365"
       style="stroke:#000000;fill:none"
       id="path3640" />
    <path
       d="M 456.199884,458.460365 C 455.238216,457.905139 454.645800,456.879058 454.645800,455.768617"
       style="stroke:#000000;fill:none"
       id="path3642" />
    <path
       d="M 454.645800,455.768617 C 454.645800,454.052023 456.037370,452.660446 457.753961,452.660446"
       style="stroke:#000000;fill:none"
       id="path3644" />
    <path
       d="M 457.753961,452.660446 C 459.470551,452.660446 460.862128,454.052023 460.862128,455.768617"
       style="stroke:#000000;fill:none"
       id="path3646" />
    <path
       d="M 386.531802,455.684963 C 386.531802,457.401554 385.140235,458.793120 383.423644,458.793120"
       style="stroke:#000000;fill:none"
       id="path3648" />
    <path
       d="M 383.423644,458.793120 C 381.707054,458.793120 380.315484,457.401554 380.315484,455.684963"
       style="stroke:#000000;fill:none"
       id="path3650" />
    <path
       d="M 380.315484,455.684963 C 380.315484,453.968373 381.707054,452.576792 383.423644,452.576792"
       style="stroke:#000000;fill:none"
       id="path3652" />
    <path
       d="M 383.423644,452.576792 C 385.140235,452.576792 386.531802,453.968373 386.531802,455.684963"
       style="stroke:#000000;fill:none"
       id="path3654" />
    <path
       d="M 423.691678,455.768642 C 423.691678,456.879076 423.099273,457.905168 422.137602,458.460383"
       style="stroke:#FF0000;fill:none"
       id="path3656" />
    <path
       d="M 422.137602,458.460383 C 421.175934,459.015608 419.991102,459.015608 419.029434,458.460383"
       style="stroke:#FF0000;fill:none"
       id="path3658" />
    <path
       d="M 419.029434,458.460383 C 418.067766,457.905168 417.475350,456.879076 417.475350,455.768642"
       style="stroke:#FF0000;fill:none"
       id="path3660" />
    <path
       d="M 417.475350,455.768642 C 417.475350,454.658202 418.067766,453.632109 419.029434,453.076894"
       style="stroke:#FF0000;fill:none"
       id="path3662" />
    <path
       d="M 419.029434,453.076894 C 419.991102,452.521669 421.175934,452.521669 422.137602,453.076894"
       style="stroke:#FF0000;fill:none"
       id="path3664" />
    <path
       d="M 422.137602,453.076894 C 423.099273,453.632109 423.691678,454.658202 423.691678,455.768642"
       style="stroke:#FF0000;fill:none"
       id="path3666" />
    <path
       d="M 522.270535,405.582130 L 610.756331,405.582130 L 610.756331,489.967406 L 522.270535,489.967406 L 522.270535,405.582130 L 522.270535,405.582130 L 522.270535,405.582130 z"
       style="stroke:#00FF00;fill:none"
       id="path3668" />
    <path
       d="M 433.304270,455.626442 C 433.304270,460.126556 430.869646,464.284828 426.917494,466.534885"
       style="stroke:#FF0000;fill:none"
       id="path3670" />
    <path
       d="M 426.917494,466.534885 C 422.965350,468.784942 418.096098,468.784942 414.143943,466.534885"
       style="stroke:#FF0000;fill:none"
       id="path3672" />
    <path
       d="M 414.143943,466.534885 C 410.191799,464.284828 407.757178,460.126556 407.757178,455.626442"
       style="stroke:#FF0000;fill:none"
       id="path3674" />
    <path
       d="M 407.757178,455.626442 C 407.757178,451.126332 410.191799,446.968059 414.143943,444.718003"
       style="stroke:#FF0000;fill:none"
       id="path3676" />
    <path
       d="M 414.143943,444.718003 C 418.096098,442.467946 422.965350,442.467946 426.917494,444.718003"
       style="stroke:#FF0000;fill:none"
       id="path3678" />
    <path
       d="M 426.917494,444.718003 C 430.869646,446.968059 433.304270,451.126332 433.304270,455.626442"
       style="stroke:#FF0000;fill:none"
       id="path3680" />
    <path
       d="M 701.351607,442.801059 L 728.799187,442.801059 L 728.799187,470.248632 L 701.351607,470.248632 L 701.351607,442.801059 L 701.351607,442.801059 L 701.351607,442.801059 z"
       style="stroke:#FF0000;fill:none"
       id="path3682" />
    <path
       d="M 671.149697,405.171673 L 759.635493,405.171673 L 759.635493,489.556949 L 671.149697,489.556949 L 671.149697,405.171673 L 671.149697,405.171673 L 671.149697,405.171673 z"
       style="stroke:#000000;fill:none"
       id="path3684" />
    <path
       d="M 406.806920,441.725127 L 434.254500,441.725127 L 434.254500,469.172700 L 406.806920,469.172700 L 406.806920,441.725127 L 406.806920,441.725127 L 406.806920,441.725127 z"
       style="stroke:#FF0000;fill:none"
       id="path3726" />
    <path
       d="M 376.605011,404.095744 L 465.090807,404.095744 L 465.090807,488.481020 L 376.605011,488.481020 L 376.605011,404.095744 L 376.605011,404.095744 L 376.605011,404.095744 z"
       style="stroke:#000000;fill:none"
       id="path3728" />
    <path
       d="M 522.217410,485.553161 L 611.400646,485.553161 L 611.400646,491.003245 L 522.217410,491.003245 L 522.217410,485.553161 L 522.217410,485.553161 z"
       style="stroke:#000000;fill:none"
       id="path3730" />
  </g>
</svg>
