  0
SECTION
  2
HEADER
  9
$ACADVER
  1
AC1014
  9
$HANDSEED
  5
FFFF
  9
$MEASUREMENT
 70
     1
  0
ENDSEC
  0
SECTION
  2
TABLES
  0
TABLE
  2
VPORT
  5
8
330
0
100
AcDbSymbolTable
 70
     4
  0
VPORT
  5
2E
330
8
100
AcDbSymbolTableRecord
100
AcDbViewportTableRecord
  2
*ACTIVE
 70
     0
 10
0.0
 20
0.0
 11
1.0
 21
1.0
 12
210.0
 22
148.5
 13
0.0
 23
0.0
 14
10.0
 24
10.0
 15
10.0
 25
10.0
 16
0.0
 26
0.0
 36
1.0
 17
0.0
 27
0.0
 37
0.0
 40
341.0
 41
1.24
 42
50.0
 43
0.0
 44
0.0
 50
0.0
 51
0.0
 71
     0
 72
   100
 73
     1
 74
     3
 75
     0
 76
     0
 77
     0
 78
     0
  0
ENDTAB
  0
TABLE
  2
LTYPE
  5
5
330
0
100
AcDbSymbolTable
 70
     1
  0
LTYPE
  5
14
330
5
100
AcDbSymbolTableRecord
100
AcDbLinetypeTableRecord
  2
BYBLOCK
 70
     0
  3

 72
    65
 73
     0
 40
0.0
  0
LTYPE
  5
15
330
5
100
AcDbSymbolTableRecord
100
AcDbLinetypeTableRecord
  2
BYLAYER
 70
     0
  3

 72
    65
 73
     0
 40
0.0
  0
LTYPE
  5
16
330
5
100
AcDbSymbolTableRecord
100
AcDbLinetypeTableRecord
  2
CONTINUOUS
 70
     0
  3
Solid line
 72
    65
 73
     0
 40
0.0
  0
ENDTAB
  0
TABLE
  2
LAYER
  5
2
100
AcDbSymbolTable
 70
3
  0
LAYER
  5
50
100
AcDbSymbolTableRecord
100
AcDbLayerTableRecord
  2
0
 70
0
  6
CONTINUOUS
  0
LAYER
  5
51
100
AcDbSymbolTableRecord
100
AcDbLayerTableRecord
  2
Layer_1
 70
0
  6
CONTINUOUS
  0
LAYER
  5
52
100
AcDbSymbolTableRecord
100
AcDbLayerTableRecord
  2
newlayer
 70
0
  6
CONTINUOUS
  0
ENDTAB
  0
TABLE
  2
STYLE
  5
3
330
0
100
AcDbSymbolTable
 70
     1
  0
STYLE
  5
11
330
3
100
AcDbSymbolTableRecord
100
AcDbTextStyleTableRecord
  2
STANDARD
 70
     0
 40
0.0
 41
1.0
 50
0.0
 71
     0
 42
2.5
  3
txt
  4

  0
ENDTAB
  0
TABLE
  2
VIEW
  5
6
330
0
100
AcDbSymbolTable
 70
     0
  0
ENDTAB
  0
TABLE
  2
UCS
  5
7
330
0
100
AcDbSymbolTable
 70
     0
  0
ENDTAB
  0
TABLE
  2
APPID
  5
9
330
0
100
AcDbSymbolTable
 70
     2
  0
APPID
  5
12
330
9
100
AcDbSymbolTableRecord
100
AcDbRegAppTableRecord
  2
ACAD
 70
     0
  0
ENDTAB
  0
TABLE
  2
DIMSTYLE
  5
A
330
0
100
AcDbSymbolTable
 70
     1
  0
DIMSTYLE
105
27
330
A
100
AcDbSymbolTableRecord
100
AcDbDimStyleTableRecord
  2
ISO-25
 70
     0
  3

  4

  5

  6

  7

 40
1.0
 41
2.5
 42
0.625
 43
3.75
 44
1.25
 45
0.0
 46
0.0
 47
0.0
 48
0.0
140
2.5
141
2.5
142
0.0
143
0.03937007874016
144
1.0
145
0.0
146
1.0
147
0.625
 71
     0
 72
     0
 73
     0
 74
     0
 75
     0
 76
     0
 77
     1
 78
     8
170
     0
171
     3
172
     1
173
     0
174
     0
175
     0
176
     0
177
     0
178
     0
270
     2
271
     2
272
     2
273
     2
274
     3
340
11
275
     0
280
     0
281
     0
282
     0
283
     0
284
     8
285
     0
286
     0
287
     3
288
     0
  0
ENDTAB
  0
TABLE
  2
BLOCK_RECORD
  5
1
330
0
100
AcDbSymbolTable
 70
     1
  0
BLOCK_RECORD
  5
1F
330
1
100
AcDbSymbolTableRecord
100
AcDbBlockTableRecord
  2
*MODEL_SPACE
  0
BLOCK_RECORD
  5
1B
330
1
100
AcDbSymbolTableRecord
100
AcDbBlockTableRecord
  2
*PAPER_SPACE
  0
ENDTAB
  0
ENDSEC
  0
SECTION
  2
BLOCKS
  0
BLOCK
  5
20
330
1F
100
AcDbEntity
  8
0
100
AcDbBlockBegin
  2
*MODEL_SPACE
 70
     0
 10
0.0
 20
0.0
 30
0.0
  3
*MODEL_SPACE
  1

  0
ENDBLK
  5
21
330
1F
100
AcDbEntity
  8
0
100
AcDbBlockEnd
  0
BLOCK
  5
1C
330
1B
100
AcDbEntity
 67
     1
  8
0
100
AcDbBlockBegin
  2
*PAPER_SPACE
  1

  0
ENDBLK
  5
1D
330
1B
100
AcDbEntity
 67
     1
  8
0
100
AcDbBlockEnd
  0
ENDSEC
  0
SECTION
  2
ENTITIES
  0
LWPOLYLINE
  5
100
100
AcDbEntity
  8
Layer_1
 62
7
100
AcDbPolyline
 90
76
 70
1
 10
88.000001
 20
208.999999
 30
0.0
 10
100.330714
 20
208.999999
 30
0.0
 10
100.330714
 20
205.999999
 30
0.0
 10
110.240715
 20
205.999999
 30
0.0
 10
110.240715
 20
208.999999
 30
0.0
 10
122.616428
 20
208.999999
 30
0.0
 10
122.616428
 20
205.999999
 30
0.0
 10
132.526429
 20
205.999999
 30
0.0
 10
132.526429
 20
208.999999
 30
0.0
 10
144.902142
 20
208.999999
 30
0.0
 10
144.902142
 20
205.999999
 30
0.0
 10
154.812143
 20
205.999999
 30
0.0
 10
154.812143
 20
208.999999
 30
0.0
 10
167.187856
 20
208.999999
 30
0.0
 10
167.187856
 20
205.999999
 30
0.0
 10
177.097857
 20
205.999999
 30
0.0
 10
177.097857
 20
208.999999
 30
0.0
 10
189.473570
 20
208.999999
 30
0.0
 10
189.473570
 20
205.999999
 30
0.0
 10
199.383571
 20
205.999999
 30
0.0
 10
199.383571
 20
208.999999
 30
0.0
 10
211.759287
 20
208.999999
 30
0.0
 10
211.759287
 20
205.999999
 30
0.0
 10
221.669285
 20
205.999999
 30
0.0
 10
221.669285
 20
208.999999
 30
0.0
 10
234.000000
 20
208.999999
 30
0.0
 10
234.000000
 20
197.455000
 30
0.0
 10
231.000001
 20
197.455000
 30
0.0
 10
231.000001
 20
187.545000
 30
0.0
 10
234.000000
 20
187.545000
 30
0.0
 10
234.000000
 20
175.955001
 30
0.0
 10
231.000001
 20
175.955001
 30
0.0
 10
231.000001
 20
166.045000
 30
0.0
 10
234.000000
 20
166.045000
 30
0.0
 10
234.000000
 20
154.454999
 30
0.0
 10
231.000001
 20
154.454999
 30
0.0
 10
231.000001
 20
144.545001
 30
0.0
 10
234.000000
 20
144.545001
 30
0.0
 10
234.000000
 20
133.000000
 30
0.0
 10
221.669285
 20
133.000000
 30
0.0
 10
221.669285
 20
135.999999
 30
0.0
 10
211.759287
 20
135.999999
 30
0.0
 10
211.759287
 20
133.000000
 30
0.0
 10
199.383571
 20
133.000000
 30
0.0
 10
199.383571
 20
135.999999
 30
0.0
 10
189.473570
 20
135.999999
 30
0.0
 10
189.473570
 20
133.000000
 30
0.0
 10
177.097857
 20
133.000000
 30
0.0
 10
177.097857
 20
135.999999
 30
0.0
 10
167.187856
 20
135.999999
 30
0.0
 10
167.187856
 20
133.000000
 30
0.0
 10
154.812143
 20
133.000000
 30
0.0
 10
154.812143
 20
135.999999
 30
0.0
 10
144.902142
 20
135.999999
 30
0.0
 10
144.902142
 20
133.000000
 30
0.0
 10
132.526429
 20
133.000000
 30
0.0
 10
132.526429
 20
135.999999
 30
0.0
 10
122.616428
 20
135.999999
 30
0.0
 10
122.616428
 20
133.000000
 30
0.0
 10
110.240715
 20
133.000000
 30
0.0
 10
110.240715
 20
135.999999
 30
0.0
 10
100.330714
 20
135.999999
 30
0.0
 10
100.330714
 20
133.000000
 30
0.0
 10
88.000001
 20
133.000000
 30
0.0
 10
88.000001
 20
144.545001
 30
0.0
 10
91.000001
 20
144.545001
 30
0.0
 10
91.000001
 20
154.454999
 30
0.0
 10
88.000001
 20
154.454999
 30
0.0
 10
88.000001
 20
166.045000
 30
0.0
 10
91.000001
 20
166.045000
 30
0.0
 10
91.000001
 20
175.955001
 30
0.0
 10
88.000001
 20
175.955001
 30
0.0
 10
88.000001
 20
187.545000
 30
0.0
 10
91.000001
 20
187.545000
 30
0.0
 10
91.000001
 20
197.455000
 30
0.0
 10
88.000001
 20
197.455000
 30
0.0
  0
LWPOLYLINE
  5
101
100
AcDbEntity
  8
Layer_1
 62
7
100
AcDbPolyline
 90
52
 70
1
 10
238.000000
 20
205.999999
 30
0.0
 10
248.954999
 20
205.999999
 30
0.0
 10
248.954999
 20
208.999999
 30
0.0
 10
259.045001
 20
208.999999
 30
0.0
 10
259.045001
 20
205.999999
 30
0.0
 10
272.954988
 20
205.999999
 30
0.0
 10
272.954988
 20
208.999999
 30
0.0
 10
283.045006
 20
208.999999
 30
0.0
 10
283.045006
 20
205.999999
 30
0.0
 10
296.954998
 20
205.999999
 30
0.0
 10
296.954998
 20
208.999999
 30
0.0
 10
307.044990
 20
208.999999
 30
0.0
 10
307.044990
 20
205.999999
 30
0.0
 10
318.000010
 20
205.999999
 30
0.0
 10
318.000010
 20
197.545001
 30
0.0
 10
320.999988
 20
197.545001
 30
0.0
 10
320.999988
 20
187.454999
 30
0.0
 10
318.000010
 20
187.454999
 30
0.0
 10
318.000010
 20
176.044999
 30
0.0
 10
320.999988
 20
176.044999
 30
0.0
 10
320.999988
 20
165.955000
 30
0.0
 10
318.000010
 20
165.955000
 30
0.0
 10
318.000010
 20
154.545000
 30
0.0
 10
320.999988
 20
154.545000
 30
0.0
 10
320.999988
 20
144.455000
 30
0.0
 10
318.000010
 20
144.455000
 30
0.0
 10
318.000010
 20
135.999999
 30
0.0
 10
307.044990
 20
135.999999
 30
0.0
 10
307.044990
 20
133.000000
 30
0.0
 10
296.954998
 20
133.000000
 30
0.0
 10
296.954998
 20
135.999999
 30
0.0
 10
283.045006
 20
135.999999
 30
0.0
 10
283.045006
 20
133.000000
 30
0.0
 10
272.954988
 20
133.000000
 30
0.0
 10
272.954988
 20
135.999999
 30
0.0
 10
259.045001
 20
135.999999
 30
0.0
 10
259.045001
 20
133.000000
 30
0.0
 10
248.954999
 20
133.000000
 30
0.0
 10
248.954999
 20
135.999999
 30
0.0
 10
238.000000
 20
135.999999
 30
0.0
 10
238.000000
 20
144.455000
 30
0.0
 10
235.000001
 20
144.455000
 30
0.0
 10
235.000001
 20
154.545000
 30
0.0
 10
238.000000
 20
154.545000
 30
0.0
 10
238.000000
 20
165.955000
 30
0.0
 10
235.000001
 20
165.955000
 30
0.0
 10
235.000001
 20
176.044999
 30
0.0
 10
238.000000
 20
176.044999
 30
0.0
 10
238.000000
 20
187.454999
 30
0.0
 10
235.000001
 20
187.454999
 30
0.0
 10
235.000001
 20
197.545001
 30
0.0
 10
238.000000
 20
197.545001
 30
0.0
  0
LWPOLYLINE
  5
102
100
AcDbEntity
  8
Layer_1
 62
7
100
AcDbPolyline
 90
76
 70
1
 10
322.000007
 20
208.999999
 30
0.0
 10
334.330701
 20
208.999999
 30
0.0
 10
334.330701
 20
205.999999
 30
0.0
 10
344.240723
 20
205.999999
 30
0.0
 10
344.240723
 20
208.999999
 30
0.0
 10
356.616423
 20
208.999999
 30
0.0
 10
356.616423
 20
205.999999
 30
0.0
 10
366.526419
 20
205.999999
 30
0.0
 10
366.526419
 20
208.999999
 30
0.0
 10
378.902145
 20
208.999999
 30
0.0
 10
378.902145
 20
205.999999
 30
0.0
 10
388.812140
 20
205.999999
 30
0.0
 10
388.812140
 20
208.999999
 30
0.0
 10
401.187867
 20
208.999999
 30
0.0
 10
401.187867
 20
205.999999
 30
0.0
 10
411.097862
 20
205.999999
 30
0.0
 10
411.097862
 20
208.999999
 30
0.0
 10
423.473563
 20
208.999999
 30
0.0
 10
423.473563
 20
205.999999
 30
0.0
 10
433.383584
 20
205.999999
 30
0.0
 10
433.383584
 20
208.999999
 30
0.0
 10
445.759284
 20
208.999999
 30
0.0
 10
445.759284
 20
205.999999
 30
0.0
 10
455.669280
 20
205.999999
 30
0.0
 10
455.669280
 20
208.999999
 30
0.0
 10
468.000001
 20
208.999999
 30
0.0
 10
468.000001
 20
197.455000
 30
0.0
 10
464.999996
 20
197.455000
 30
0.0
 10
464.999996
 20
187.545000
 30
0.0
 10
468.000001
 20
187.545000
 30
0.0
 10
468.000001
 20
175.955001
 30
0.0
 10
464.999996
 20
175.955001
 30
0.0
 10
464.999996
 20
166.045000
 30
0.0
 10
468.000001
 20
166.045000
 30
0.0
 10
468.000001
 20
154.454999
 30
0.0
 10
464.999996
 20
154.454999
 30
0.0
 10
464.999996
 20
144.545001
 30
0.0
 10
468.000001
 20
144.545001
 30
0.0
 10
468.000001
 20
133.000000
 30
0.0
 10
455.669280
 20
133.000000
 30
0.0
 10
455.669280
 20
135.999999
 30
0.0
 10
445.759284
 20
135.999999
 30
0.0
 10
445.759284
 20
133.000000
 30
0.0
 10
433.383584
 20
133.000000
 30
0.0
 10
433.383584
 20
135.999999
 30
0.0
 10
423.473563
 20
135.999999
 30
0.0
 10
423.473563
 20
133.000000
 30
0.0
 10
411.097862
 20
133.000000
 30
0.0
 10
411.097862
 20
135.999999
 30
0.0
 10
401.187867
 20
135.999999
 30
0.0
 10
401.187867
 20
133.000000
 30
0.0
 10
388.812140
 20
133.000000
 30
0.0
 10
388.812140
 20
135.999999
 30
0.0
 10
378.902145
 20
135.999999
 30
0.0
 10
378.902145
 20
133.000000
 30
0.0
 10
366.526419
 20
133.000000
 30
0.0
 10
366.526419
 20
135.999999
 30
0.0
 10
356.616423
 20
135.999999
 30
0.0
 10
356.616423
 20
133.000000
 30
0.0
 10
344.240723
 20
133.000000
 30
0.0
 10
344.240723
 20
135.999999
 30
0.0
 10
334.330701
 20
135.999999
 30
0.0
 10
334.330701
 20
133.000000
 30
0.0
 10
322.000007
 20
133.000000
 30
0.0
 10
322.000007
 20
144.545001
 30
0.0
 10
325.000011
 20
144.545001
 30
0.0
 10
325.000011
 20
154.454999
 30
0.0
 10
322.000007
 20
154.454999
 30
0.0
 10
322.000007
 20
166.045000
 30
0.0
 10
325.000011
 20
166.045000
 30
0.0
 10
325.000011
 20
175.955001
 30
0.0
 10
322.000007
 20
175.955001
 30
0.0
 10
322.000007
 20
187.545000
 30
0.0
 10
325.000011
 20
187.545000
 30
0.0
 10
325.000011
 20
197.455000
 30
0.0
 10
322.000007
 20
197.455000
 30
0.0
  0
LWPOLYLINE
  5
103
100
AcDbEntity
  8
Layer_1
 62
7
100
AcDbPolyline
 90
76
 70
1
 10
88.000001
 20
293.000000
 30
0.0
 10
100.240714
 20
293.000000
 30
0.0
 10
100.240714
 20
296.000000
 30
0.0
 10
110.330713
 20
296.000000
 30
0.0
 10
110.330713
 20
293.000000
 30
0.0
 10
122.526428
 20
293.000000
 30
0.0
 10
122.526428
 20
296.000000
 30
0.0
 10
132.616429
 20
296.000000
 30
0.0
 10
132.616429
 20
293.000000
 30
0.0
 10
144.812144
 20
293.000000
 30
0.0
 10
144.812144
 20
296.000000
 30
0.0
 10
154.902143
 20
296.000000
 30
0.0
 10
154.902143
 20
293.000000
 30
0.0
 10
167.097858
 20
293.000000
 30
0.0
 10
167.097858
 20
296.000000
 30
0.0
 10
177.187857
 20
296.000000
 30
0.0
 10
177.187857
 20
293.000000
 30
0.0
 10
189.383572
 20
293.000000
 30
0.0
 10
189.383572
 20
296.000000
 30
0.0
 10
199.473571
 20
296.000000
 30
0.0
 10
199.473571
 20
293.000000
 30
0.0
 10
211.669286
 20
293.000000
 30
0.0
 10
211.669286
 20
296.000000
 30
0.0
 10
221.759285
 20
296.000000
 30
0.0
 10
221.759285
 20
293.000000
 30
0.0
 10
234.000000
 20
293.000000
 30
0.0
 10
234.000000
 20
281.955000
 30
0.0
 10
231.000001
 20
281.955000
 30
0.0
 10
231.000001
 20
272.045000
 30
0.0
 10
234.000000
 20
272.045000
 30
0.0
 10
234.000000
 20
257.955001
 30
0.0
 10
231.000001
 20
257.955001
 30
0.0
 10
231.000001
 20
248.045000
 30
0.0
 10
234.000000
 20
248.045000
 30
0.0
 10
234.000000
 20
233.955001
 30
0.0
 10
231.000001
 20
233.955001
 30
0.0
 10
231.000001
 20
224.045001
 30
0.0
 10
234.000000
 20
224.045001
 30
0.0
 10
234.000000
 20
212.999999
 30
0.0
 10
221.759285
 20
212.999999
 30
0.0
 10
221.759285
 20
209.999999
 30
0.0
 10
211.669286
 20
209.999999
 30
0.0
 10
211.669286
 20
212.999999
 30
0.0
 10
199.473571
 20
212.999999
 30
0.0
 10
199.473571
 20
209.999999
 30
0.0
 10
189.383572
 20
209.999999
 30
0.0
 10
189.383572
 20
212.999999
 30
0.0
 10
177.187857
 20
212.999999
 30
0.0
 10
177.187857
 20
209.999999
 30
0.0
 10
167.097858
 20
209.999999
 30
0.0
 10
167.097858
 20
212.999999
 30
0.0
 10
154.902143
 20
212.999999
 30
0.0
 10
154.902143
 20
209.999999
 30
0.0
 10
144.812144
 20
209.999999
 30
0.0
 10
144.812144
 20
212.999999
 30
0.0
 10
132.616429
 20
212.999999
 30
0.0
 10
132.616429
 20
209.999999
 30
0.0
 10
122.526428
 20
209.999999
 30
0.0
 10
122.526428
 20
212.999999
 30
0.0
 10
110.330713
 20
212.999999
 30
0.0
 10
110.330713
 20
209.999999
 30
0.0
 10
100.240714
 20
209.999999
 30
0.0
 10
100.240714
 20
212.999999
 30
0.0
 10
88.000001
 20
212.999999
 30
0.0
 10
88.000001
 20
224.045001
 30
0.0
 10
91.000001
 20
224.045001
 30
0.0
 10
91.000001
 20
233.955001
 30
0.0
 10
88.000001
 20
233.955001
 30
0.0
 10
88.000001
 20
248.045000
 30
0.0
 10
91.000001
 20
248.045000
 30
0.0
 10
91.000001
 20
257.955001
 30
0.0
 10
88.000001
 20
257.955001
 30
0.0
 10
88.000001
 20
272.045000
 30
0.0
 10
91.000001
 20
272.045000
 30
0.0
 10
91.000001
 20
281.955000
 30
0.0
 10
88.000001
 20
281.955000
 30
0.0
  0
LWPOLYLINE
  5
104
100
AcDbEntity
  8
Layer_1
 62
7
100
AcDbPolyline
 90
4
 70
1
 10
98.541250
 20
198.877964
 30
0.0
 10
139.364601
 20
198.877964
 30
0.0
 10
139.364601
 20
142.443926
 30
0.0
 10
98.541250
 20
142.443926
 30
0.0
  0
LWPOLYLINE
  5
105
100
AcDbEntity
  8
Layer_1
 62
7
100
AcDbPolyline
 90
4
 70
1
 10
180.101124
 20
198.942197
 30
0.0
 10
221.781968
 20
198.942197
 30
0.0
 10
221.781968
 20
142.379693
 30
0.0
 10
180.101124
 20
142.379693
 30
0.0
  0
LWPOLYLINE
  5
106
100
AcDbEntity
  8
Layer_1
 62
7
100
AcDbPolyline
 90
76
 70
1
 10
239.723840
 20
295.184321
 30
0.0
 10
251.964552
 20
295.184321
 30
0.0
 10
251.964552
 20
298.184320
 30
0.0
 10
262.054552
 20
298.184320
 30
0.0
 10
262.054552
 20
295.184321
 30
0.0
 10
274.250266
 20
295.184321
 30
0.0
 10
274.250266
 20
298.184320
 30
0.0
 10
284.340268
 20
298.184320
 30
0.0
 10
284.340268
 20
295.184321
 30
0.0
 10
296.535983
 20
295.184321
 30
0.0
 10
296.535983
 20
298.184320
 30
0.0
 10
306.625982
 20
298.184320
 30
0.0
 10
306.625982
 20
295.184321
 30
0.0
 10
318.821697
 20
295.184321
 30
0.0
 10
318.821697
 20
298.184320
 30
0.0
 10
328.911696
 20
298.184320
 30
0.0
 10
328.911696
 20
295.184321
 30
0.0
 10
341.107411
 20
295.184321
 30
0.0
 10
341.107411
 20
298.184320
 30
0.0
 10
351.197410
 20
298.184320
 30
0.0
 10
351.197410
 20
295.184321
 30
0.0
 10
363.393125
 20
295.184321
 30
0.0
 10
363.393125
 20
298.184320
 30
0.0
 10
373.483124
 20
298.184320
 30
0.0
 10
373.483124
 20
295.184321
 30
0.0
 10
385.723839
 20
295.184321
 30
0.0
 10
385.723839
 20
284.139321
 30
0.0
 10
382.723840
 20
284.139321
 30
0.0
 10
382.723840
 20
274.229321
 30
0.0
 10
385.723839
 20
274.229321
 30
0.0
 10
385.723839
 20
260.139322
 30
0.0
 10
382.723840
 20
260.139322
 30
0.0
 10
382.723840
 20
250.229321
 30
0.0
 10
385.723839
 20
250.229321
 30
0.0
 10
385.723839
 20
236.139322
 30
0.0
 10
382.723840
 20
236.139322
 30
0.0
 10
382.723840
 20
226.229321
 30
0.0
 10
385.723839
 20
226.229321
 30
0.0
 10
385.723839
 20
215.184319
 30
0.0
 10
373.483124
 20
215.184319
 30
0.0
 10
373.483124
 20
212.184320
 30
0.0
 10
363.393125
 20
212.184320
 30
0.0
 10
363.393125
 20
215.184319
 30
0.0
 10
351.197410
 20
215.184319
 30
0.0
 10
351.197410
 20
212.184320
 30
0.0
 10
341.107411
 20
212.184320
 30
0.0
 10
341.107411
 20
215.184319
 30
0.0
 10
328.911696
 20
215.184319
 30
0.0
 10
328.911696
 20
212.184320
 30
0.0
 10
318.821697
 20
212.184320
 30
0.0
 10
318.821697
 20
215.184319
 30
0.0
 10
306.625982
 20
215.184319
 30
0.0
 10
306.625982
 20
212.184320
 30
0.0
 10
296.535983
 20
212.184320
 30
0.0
 10
296.535983
 20
215.184319
 30
0.0
 10
284.340268
 20
215.184319
 30
0.0
 10
284.340268
 20
212.184320
 30
0.0
 10
274.250266
 20
212.184320
 30
0.0
 10
274.250266
 20
215.184319
 30
0.0
 10
262.054552
 20
215.184319
 30
0.0
 10
262.054552
 20
212.184320
 30
0.0
 10
251.964552
 20
212.184320
 30
0.0
 10
251.964552
 20
215.184319
 30
0.0
 10
239.723840
 20
215.184319
 30
0.0
 10
239.723840
 20
226.229321
 30
0.0
 10
242.723839
 20
226.229321
 30
0.0
 10
242.723839
 20
236.139322
 30
0.0
 10
239.723840
 20
236.139322
 30
0.0
 10
239.723840
 20
250.229321
 30
0.0
 10
242.723839
 20
250.229321
 30
0.0
 10
242.723839
 20
260.139322
 30
0.0
 10
239.723840
 20
260.139322
 30
0.0
 10
239.723840
 20
274.229321
 30
0.0
 10
242.723839
 20
274.229321
 30
0.0
 10
242.723839
 20
284.139321
 30
0.0
 10
239.723840
 20
284.139321
 30
0.0
  0
LWPOLYLINE
  5
107
100
AcDbEntity
  8
Layer_1
 62
7
100
AcDbPolyline
 90
4
 70
1
 10
248.575968
 20
197.717816
 30
0.0
 10
255.217687
 20
197.717816
 30
0.0
 10
255.217687
 20
144.512434
 30
0.0
 10
248.575968
 20
144.512434
 30
0.0
  0
LWPOLYLINE
  5
108
100
AcDbEntity
  8
Layer_1
 62
7
100
AcDbPolyline
 90
4
 70
1
 10
261.812889
 20
197.717816
 30
0.0
 10
268.454584
 20
197.717816
 30
0.0
 10
268.454584
 20
144.512434
 30
0.0
 10
261.812889
 20
144.512434
 30
0.0
  0
LWPOLYLINE
  5
109
100
AcDbEntity
  8
Layer_1
 62
7
100
AcDbPolyline
 90
4
 70
1
 10
275.049774
 20
197.717819
 30
0.0
 10
281.691477
 20
197.717819
 30
0.0
 10
281.691477
 20
144.512434
 30
0.0
 10
275.049774
 20
144.512434
 30
0.0
  0
LWPOLYLINE
  5
10a
100
AcDbEntity
  8
Layer_1
 62
7
100
AcDbPolyline
 90
4
 70
1
 10
288.286666
 20
197.717816
 30
0.0
 10
294.928369
 20
197.717816
 30
0.0
 10
294.928369
 20
144.512434
 30
0.0
 10
288.286666
 20
144.512434
 30
0.0
  0
LWPOLYLINE
  5
10b
100
AcDbEntity
  8
Layer_1
 62
7
100
AcDbPolyline
 90
4
 70
1
 10
301.523585
 20
197.717819
 30
0.0
 10
308.165288
 20
197.717819
 30
0.0
 10
308.165288
 20
144.512434
 30
0.0
 10
301.523585
 20
144.512434
 30
0.0
  0
LWPOLYLINE
  5
10c
100
AcDbEntity
  8
Layer_1
 62
7
100
AcDbPolyline
 90
52
 70
1
 10
393.183245
 20
292.205507
 30
0.0
 10
404.138245
 20
292.205507
 30
0.0
 10
404.138245
 20
295.205506
 30
0.0
 10
414.228245
 20
295.205506
 30
0.0
 10
414.228245
 20
292.205507
 30
0.0
 10
428.138246
 20
292.205507
 30
0.0
 10
428.138246
 20
295.205506
 30
0.0
 10
438.228245
 20
295.205506
 30
0.0
 10
438.228245
 20
292.205507
 30
0.0
 10
452.138246
 20
292.205507
 30
0.0
 10
452.138246
 20
295.205506
 30
0.0
 10
462.228245
 20
295.205506
 30
0.0
 10
462.228245
 20
292.205507
 30
0.0
 10
473.183246
 20
292.205507
 30
0.0
 10
473.183246
 20
283.750508
 30
0.0
 10
476.183246
 20
283.750508
 30
0.0
 10
476.183246
 20
273.660506
 30
0.0
 10
473.183246
 20
273.660506
 30
0.0
 10
473.183246
 20
262.250506
 30
0.0
 10
476.183246
 20
262.250506
 30
0.0
 10
476.183246
 20
252.160507
 30
0.0
 10
473.183246
 20
252.160507
 30
0.0
 10
473.183246
 20
240.750507
 30
0.0
 10
476.183246
 20
240.750507
 30
0.0
 10
476.183246
 20
230.660508
 30
0.0
 10
473.183246
 20
230.660508
 30
0.0
 10
473.183246
 20
222.205506
 30
0.0
 10
462.228245
 20
222.205506
 30
0.0
 10
462.228245
 20
219.205507
 30
0.0
 10
452.138246
 20
219.205507
 30
0.0
 10
452.138246
 20
222.205506
 30
0.0
 10
438.228245
 20
222.205506
 30
0.0
 10
438.228245
 20
219.205507
 30
0.0
 10
428.138246
 20
219.205507
 30
0.0
 10
428.138246
 20
222.205506
 30
0.0
 10
414.228245
 20
222.205506
 30
0.0
 10
414.228245
 20
219.205507
 30
0.0
 10
404.138245
 20
219.205507
 30
0.0
 10
404.138245
 20
222.205506
 30
0.0
 10
393.183245
 20
222.205506
 30
0.0
 10
393.183245
 20
230.660508
 30
0.0
 10
390.183245
 20
230.660508
 30
0.0
 10
390.183245
 20
240.750507
 30
0.0
 10
393.183245
 20
240.750507
 30
0.0
 10
393.183245
 20
252.160507
 30
0.0
 10
390.183245
 20
252.160507
 30
0.0
 10
390.183245
 20
262.250506
 30
0.0
 10
393.183245
 20
262.250506
 30
0.0
 10
393.183245
 20
273.660506
 30
0.0
 10
390.183245
 20
273.660506
 30
0.0
 10
390.183245
 20
283.750508
 30
0.0
 10
393.183245
 20
283.750508
 30
0.0
  0
LWPOLYLINE
  5
10d
100
AcDbEntity
  8
Layer_1
 62
7
100
AcDbPolyline
 90
4
 70
1
 10
403.276917
 20
284.368261
 30
0.0
 10
409.918636
 20
284.368261
 30
0.0
 10
409.918636
 20
231.162878
 30
0.0
 10
403.276917
 20
231.162878
 30
0.0
  0
LWPOLYLINE
  5
10e
100
AcDbEntity
  8
Layer_1
 62
7
100
AcDbPolyline
 90
4
 70
1
 10
416.513838
 20
284.368261
 30
0.0
 10
423.155533
 20
284.368261
 30
0.0
 10
423.155533
 20
231.162878
 30
0.0
 10
416.513838
 20
231.162878
 30
0.0
  0
LWPOLYLINE
  5
10f
100
AcDbEntity
  8
Layer_1
 62
7
100
AcDbPolyline
 90
4
 70
1
 10
429.750723
 20
284.368264
 30
0.0
 10
436.392426
 20
284.368264
 30
0.0
 10
436.392426
 20
231.162878
 30
0.0
 10
429.750723
 20
231.162878
 30
0.0
  0
LWPOLYLINE
  5
110
100
AcDbEntity
  8
Layer_1
 62
7
100
AcDbPolyline
 90
4
 70
1
 10
442.987615
 20
284.368261
 30
0.0
 10
449.629318
 20
284.368261
 30
0.0
 10
449.629318
 20
231.162878
 30
0.0
 10
442.987615
 20
231.162878
 30
0.0
  0
LWPOLYLINE
  5
111
100
AcDbEntity
  8
Layer_1
 62
7
100
AcDbPolyline
 90
4
 70
1
 10
456.224534
 20
284.368264
 30
0.0
 10
462.866237
 20
284.368264
 30
0.0
 10
462.866237
 20
231.162878
 30
0.0
 10
456.224534
 20
231.162878
 30
0.0
  0
LWPOLYLINE
  5
112
100
AcDbEntity
  8
Layer_1
 62
7
100
AcDbPolyline
 90
4
 70
1
 10
99.521756
 20
280.476273
 30
0.0
 10
106.044458
 20
280.476273
 30
0.0
 10
106.044458
 20
227.270891
 30
0.0
 10
99.521756
 20
227.270891
 30
0.0
  0
LWPOLYLINE
  5
113
100
AcDbEntity
  8
Layer_1
 62
7
100
AcDbPolyline
 90
4
 70
1
 10
113.941601
 20
280.476273
 30
0.0
 10
120.464278
 20
280.476273
 30
0.0
 10
120.464278
 20
227.270891
 30
0.0
 10
113.941601
 20
227.270891
 30
0.0
  0
LWPOLYLINE
  5
114
100
AcDbEntity
  8
Layer_1
 62
7
100
AcDbPolyline
 90
4
 70
1
 10
128.361440
 20
280.476276
 30
0.0
 10
134.884126
 20
280.476276
 30
0.0
 10
134.884126
 20
227.270891
 30
0.0
 10
128.361440
 20
227.270891
 30
0.0
  0
LWPOLYLINE
  5
115
100
AcDbEntity
  8
Layer_1
 62
7
100
AcDbPolyline
 90
4
 70
1
 10
142.781255
 20
280.476273
 30
0.0
 10
149.303941
 20
280.476273
 30
0.0
 10
149.303941
 20
227.270891
 30
0.0
 10
142.781255
 20
227.270891
 30
0.0
  0
LWPOLYLINE
  5
116
100
AcDbEntity
  8
Layer_1
 62
7
100
AcDbPolyline
 90
4
 70
1
 10
157.201095
 20
280.476276
 30
0.0
 10
163.723783
 20
280.476276
 30
0.0
 10
163.723783
 20
227.270891
 30
0.0
 10
157.201095
 20
227.270891
 30
0.0
  0
LWPOLYLINE
  5
117
100
AcDbEntity
  8
Layer_1
 62
7
100
AcDbPolyline
 90
4
 70
1
 10
171.620942
 20
280.921215
 30
0.0
 10
178.143643
 20
280.921215
 30
0.0
 10
178.143643
 20
227.715833
 30
0.0
 10
171.620942
 20
227.715833
 30
0.0
  0
LWPOLYLINE
  5
118
100
AcDbEntity
  8
Layer_1
 62
7
100
AcDbPolyline
 90
4
 70
1
 10
186.040784
 20
280.921215
 30
0.0
 10
192.563464
 20
280.921215
 30
0.0
 10
192.563464
 20
227.715833
 30
0.0
 10
186.040784
 20
227.715833
 30
0.0
  0
LWPOLYLINE
  5
119
100
AcDbEntity
  8
Layer_1
 62
7
100
AcDbPolyline
 90
4
 70
1
 10
200.460631
 20
280.921215
 30
0.0
 10
206.983317
 20
280.921215
 30
0.0
 10
206.983317
 20
227.715833
 30
0.0
 10
200.460631
 20
227.715833
 30
0.0
  0
LWPOLYLINE
  5
11a
100
AcDbEntity
  8
Layer_1
 62
7
100
AcDbPolyline
 90
4
 70
1
 10
214.880457
 20
280.921218
 30
0.0
 10
221.403143
 20
280.921218
 30
0.0
 10
221.403143
 20
227.715833
 30
0.0
 10
214.880457
 20
227.715833
 30
0.0
  0
LWPOLYLINE
  5
11b
100
AcDbEntity
  8
Layer_1
 62
7
100
AcDbPolyline
 90
4
 70
1
 10
251.690531
 20
279.141460
 30
0.0
 10
258.213233
 20
279.141460
 30
0.0
 10
258.213233
 20
225.936077
 30
0.0
 10
251.690531
 20
225.936077
 30
0.0
  0
LWPOLYLINE
  5
11c
100
AcDbEntity
  8
Layer_1
 62
7
100
AcDbPolyline
 90
4
 70
1
 10
266.110376
 20
279.141460
 30
0.0
 10
272.633054
 20
279.141460
 30
0.0
 10
272.633054
 20
225.936077
 30
0.0
 10
266.110376
 20
225.936077
 30
0.0
  0
LWPOLYLINE
  5
11d
100
AcDbEntity
  8
Layer_1
 62
7
100
AcDbPolyline
 90
4
 70
1
 10
280.530215
 20
279.141462
 30
0.0
 10
287.052901
 20
279.141462
 30
0.0
 10
287.052901
 20
225.936077
 30
0.0
 10
280.530215
 20
225.936077
 30
0.0
  0
LWPOLYLINE
  5
11e
100
AcDbEntity
  8
Layer_1
 62
7
100
AcDbPolyline
 90
4
 70
1
 10
294.950031
 20
279.141460
 30
0.0
 10
301.472716
 20
279.141460
 30
0.0
 10
301.472716
 20
225.936077
 30
0.0
 10
294.950031
 20
225.936077
 30
0.0
  0
LWPOLYLINE
  5
11f
100
AcDbEntity
  8
Layer_1
 62
7
100
AcDbPolyline
 90
4
 70
1
 10
309.369870
 20
279.141462
 30
0.0
 10
315.892558
 20
279.141462
 30
0.0
 10
315.892558
 20
225.936077
 30
0.0
 10
309.369870
 20
225.936077
 30
0.0
  0
LWPOLYLINE
  5
120
100
AcDbEntity
  8
Layer_1
 62
7
100
AcDbPolyline
 90
4
 70
1
 10
323.789717
 20
279.586401
 30
0.0
 10
330.312419
 20
279.586401
 30
0.0
 10
330.312419
 20
226.381019
 30
0.0
 10
323.789717
 20
226.381019
 30
0.0
  0
LWPOLYLINE
  5
121
100
AcDbEntity
  8
Layer_1
 62
7
100
AcDbPolyline
 90
4
 70
1
 10
338.209559
 20
279.586401
 30
0.0
 10
344.732240
 20
279.586401
 30
0.0
 10
344.732240
 20
226.381019
 30
0.0
 10
338.209559
 20
226.381019
 30
0.0
  0
LWPOLYLINE
  5
122
100
AcDbEntity
  8
Layer_1
 62
7
100
AcDbPolyline
 90
4
 70
1
 10
352.629407
 20
279.586401
 30
0.0
 10
359.152092
 20
279.586401
 30
0.0
 10
359.152092
 20
226.381019
 30
0.0
 10
352.629407
 20
226.381019
 30
0.0
  0
LWPOLYLINE
  5
123
100
AcDbEntity
  8
Layer_1
 62
7
100
AcDbPolyline
 90
4
 70
1
 10
367.049233
 20
279.586404
 30
0.0
 10
373.571918
 20
279.586404
 30
0.0
 10
373.571918
 20
226.381019
 30
0.0
 10
367.049233
 20
226.381019
 30
0.0
  0
SPLINE
  5
124
100
AcDbEntity
  8
newlayer
 62
7
100
AcDbSpline
 70
8
 71
3
 72
8
 73
4
 74
0
 40
0
 40
0
 40
0
 40
0
 40
1
 40
1
 40
1
 40
1
 10
150.221536
 20
180.472917
 30
0.0
 10
150.221536
 20
180.159527
 30
0.0
 10
150.054344
 20
179.869941
 30
0.0
 10
149.782939
 20
179.713246
 30
0.0
  0
SPLINE
  5
125
100
AcDbEntity
  8
newlayer
 62
7
100
AcDbSpline
 70
8
 71
3
 72
8
 73
4
 74
0
 40
0
 40
0
 40
0
 40
0
 40
1
 40
1
 40
1
 40
1
 10
149.782939
 20
179.713246
 30
0.0
 10
149.511535
 20
179.556551
 30
0.0
 10
149.177151
 20
179.556551
 30
0.0
 10
148.905746
 20
179.713246
 30
0.0
  0
SPLINE
  5
126
100
AcDbEntity
  8
newlayer
 62
7
100
AcDbSpline
 70
8
 71
3
 72
8
 73
4
 74
0
 40
0
 40
0
 40
0
 40
0
 40
1
 40
1
 40
1
 40
1
 10
148.905746
 20
179.713246
 30
0.0
 10
148.634342
 20
179.869941
 30
0.0
 10
148.467150
 20
180.159527
 30
0.0
 10
148.467150
 20
180.472917
 30
0.0
  0
SPLINE
  5
127
100
AcDbEntity
  8
newlayer
 62
7
100
AcDbSpline
 70
8
 71
3
 72
8
 73
4
 74
0
 40
0
 40
0
 40
0
 40
0
 40
1
 40
1
 40
1
 40
1
 10
148.467150
 20
180.472917
 30
0.0
 10
148.467150
 20
180.786308
 30
0.0
 10
148.634342
 20
181.075893
 30
0.0
 10
148.905746
 20
181.232589
 30
0.0
  0
SPLINE
  5
128
100
AcDbEntity
  8
newlayer
 62
7
100
AcDbSpline
 70
8
 71
3
 72
8
 73
4
 74
0
 40
0
 40
0
 40
0
 40
0
 40
1
 40
1
 40
1
 40
1
 10
148.905746
 20
181.232589
 30
0.0
 10
149.177151
 20
181.389284
 30
0.0
 10
149.511535
 20
181.389284
 30
0.0
 10
149.782939
 20
181.232589
 30
0.0
  0
SPLINE
  5
129
100
AcDbEntity
  8
newlayer
 62
7
100
AcDbSpline
 70
8
 71
3
 72
8
 73
4
 74
0
 40
0
 40
0
 40
0
 40
0
 40
1
 40
1
 40
1
 40
1
 10
149.782939
 20
181.232589
 30
0.0
 10
150.054344
 20
181.075893
 30
0.0
 10
150.221536
 20
180.786308
 30
0.0
 10
150.221536
 20
180.472917
 30
0.0
  0
LWPOLYLINE
  5
12a
100
AcDbEntity
  8
newlayer
 62
7
100
AcDbPolyline
 90
4
 70
1
 10
146.964723
 20
182.155048
 30
0.0
 10
171.964723
 20
182.155048
 30
0.0
 10
171.964723
 20
158.155048
 30
0.0
 10
146.964723
 20
158.155048
 30
0.0
  0
SPLINE
  5
12b
100
AcDbEntity
  8
newlayer
 62
7
100
AcDbSpline
 70
8
 71
3
 72
8
 73
4
 74
0
 40
0
 40
0
 40
0
 40
0
 40
1
 40
1
 40
1
 40
1
 10
171.175582
 20
180.449290
 30
0.0
 10
171.175582
 20
180.135899
 30
0.0
 10
171.008390
 20
179.846314
 30
0.0
 10
170.736985
 20
179.689619
 30
0.0
  0
SPLINE
  5
12c
100
AcDbEntity
  8
newlayer
 62
7
100
AcDbSpline
 70
8
 71
3
 72
8
 73
4
 74
0
 40
0
 40
0
 40
0
 40
0
 40
1
 40
1
 40
1
 40
1
 10
170.736985
 20
179.689619
 30
0.0
 10
170.465581
 20
179.532923
 30
0.0
 10
170.131197
 20
179.532923
 30
0.0
 10
169.859792
 20
179.689619
 30
0.0
  0
SPLINE
  5
12d
100
AcDbEntity
  8
newlayer
 62
7
100
AcDbSpline
 70
8
 71
3
 72
8
 73
4
 74
0
 40
0
 40
0
 40
0
 40
0
 40
1
 40
1
 40
1
 40
1
 10
169.859792
 20
179.689619
 30
0.0
 10
169.588388
 20
179.846314
 30
0.0
 10
169.421196
 20
180.135899
 30
0.0
 10
169.421196
 20
180.449290
 30
0.0
  0
SPLINE
  5
12e
100
AcDbEntity
  8
newlayer
 62
7
100
AcDbSpline
 70
8
 71
3
 72
8
 73
4
 74
0
 40
0
 40
0
 40
0
 40
0
 40
1
 40
1
 40
1
 40
1
 10
169.421196
 20
180.449290
 30
0.0
 10
169.421196
 20
180.933750
 30
0.0
 10
169.813928
 20
181.326483
 30
0.0
 10
170.298389
 20
181.326483
 30
0.0
  0
SPLINE
  5
12f
100
AcDbEntity
  8
newlayer
 62
7
100
AcDbSpline
 70
8
 71
3
 72
8
 73
4
 74
0
 40
0
 40
0
 40
0
 40
0
 40
1
 40
1
 40
1
 40
1
 10
170.298389
 20
181.326483
 30
0.0
 10
170.782849
 20
181.326483
 30
0.0
 10
171.175582
 20
180.933750
 30
0.0
 10
171.175582
 20
180.449290
 30
0.0
  0
LWPOLYLINE
  5
130
100
AcDbEntity
  8
newlayer
 62
7
100
AcDbPolyline
 90
1
 70
1
 10
150.221536
 20
180.472917
 30
0.0
  0
SPLINE
  5
131
100
AcDbEntity
  8
newlayer
 62
7
100
AcDbSpline
 70
8
 71
3
 72
8
 73
4
 74
0
 40
0
 40
0
 40
0
 40
0
 40
1
 40
1
 40
1
 40
1
 10
171.175582
 20
167.952477
 30
0.0
 10
171.175582
 20
167.639086
 30
0.0
 10
171.008390
 20
167.349501
 30
0.0
 10
170.736985
 20
167.192806
 30
0.0
  0
SPLINE
  5
132
100
AcDbEntity
  8
newlayer
 62
7
100
AcDbSpline
 70
8
 71
3
 72
8
 73
4
 74
0
 40
0
 40
0
 40
0
 40
0
 40
1
 40
1
 40
1
 40
1
 10
170.736985
 20
167.192806
 30
0.0
 10
170.465581
 20
167.036110
 30
0.0
 10
170.131197
 20
167.036110
 30
0.0
 10
169.859792
 20
167.192806
 30
0.0
  0
SPLINE
  5
133
100
AcDbEntity
  8
newlayer
 62
7
100
AcDbSpline
 70
8
 71
3
 72
8
 73
4
 74
0
 40
0
 40
0
 40
0
 40
0
 40
1
 40
1
 40
1
 40
1
 10
169.859792
 20
167.192806
 30
0.0
 10
169.588388
 20
167.349501
 30
0.0
 10
169.421196
 20
167.639086
 30
0.0
 10
169.421196
 20
167.952477
 30
0.0
  0
SPLINE
  5
134
100
AcDbEntity
  8
newlayer
 62
7
100
AcDbSpline
 70
8
 71
3
 72
8
 73
4
 74
0
 40
0
 40
0
 40
0
 40
0
 40
1
 40
1
 40
1
 40
1
 10
169.421196
 20
167.952477
 30
0.0
 10
169.421196
 20
168.436937
 30
0.0
 10
169.813928
 20
168.829670
 30
0.0
 10
170.298389
 20
168.829670
 30
0.0
  0
SPLINE
  5
135
100
AcDbEntity
  8
newlayer
 62
7
100
AcDbSpline
 70
8
 71
3
 72
8
 73
4
 74
0
 40
0
 40
0
 40
0
 40
0
 40
1
 40
1
 40
1
 40
1
 10
170.298389
 20
168.829670
 30
0.0
 10
170.782849
 20
168.829670
 30
0.0
 10
171.175582
 20
168.436937
 30
0.0
 10
171.175582
 20
167.952477
 30
0.0
  0
LWPOLYLINE
  5
136
100
AcDbEntity
  8
newlayer
 62
7
100
AcDbPolyline
 90
1
 70
1
 10
171.175582
 20
180.449290
 30
0.0
  0
SPLINE
  5
137
100
AcDbEntity
  8
newlayer
 62
7
100
AcDbSpline
 70
8
 71
3
 72
8
 73
4
 74
0
 40
0
 40
0
 40
0
 40
0
 40
1
 40
1
 40
1
 40
1
 10
150.197914
 20
167.976086
 30
0.0
 10
150.197914
 20
167.491625
 30
0.0
 10
149.805181
 20
167.098893
 30
0.0
 10
149.320721
 20
167.098893
 30
0.0
  0
SPLINE
  5
138
100
AcDbEntity
  8
newlayer
 62
7
100
AcDbSpline
 70
8
 71
3
 72
8
 73
4
 74
0
 40
0
 40
0
 40
0
 40
0
 40
1
 40
1
 40
1
 40
1
 10
149.320721
 20
167.098893
 30
0.0
 10
148.836261
 20
167.098893
 30
0.0
 10
148.443528
 20
167.491625
 30
0.0
 10
148.443528
 20
167.976086
 30
0.0
  0
SPLINE
  5
139
100
AcDbEntity
  8
newlayer
 62
7
100
AcDbSpline
 70
8
 71
3
 72
8
 73
4
 74
0
 40
0
 40
0
 40
0
 40
0
 40
1
 40
1
 40
1
 40
1
 10
148.443528
 20
167.976086
 30
0.0
 10
148.443528
 20
168.460546
 30
0.0
 10
148.836261
 20
168.853279
 30
0.0
 10
149.320721
 20
168.853279
 30
0.0
  0
SPLINE
  5
13a
100
AcDbEntity
  8
newlayer
 62
7
100
AcDbSpline
 70
8
 71
3
 72
8
 73
4
 74
0
 40
0
 40
0
 40
0
 40
0
 40
1
 40
1
 40
1
 40
1
 10
149.320721
 20
168.853279
 30
0.0
 10
149.805181
 20
168.853279
 30
0.0
 10
150.197914
 20
168.460546
 30
0.0
 10
150.197914
 20
167.976086
 30
0.0
  0
LWPOLYLINE
  5
13b
100
AcDbEntity
  8
newlayer
 62
7
100
AcDbPolyline
 90
1
 70
1
 10
171.175582
 20
167.952477
 30
0.0
  0
LWPOLYLINE
  5
13c
100
AcDbEntity
  8
newlayer
 62
7
100
AcDbPolyline
 90
1
 70
1
 10
150.197914
 20
167.976086
 30
0.0
  0
SPLINE
  5
13d
100
AcDbEntity
  8
newlayer
 62
1
100
AcDbSpline
 70
8
 71
3
 72
8
 73
4
 74
0
 40
0
 40
0
 40
0
 40
0
 40
1
 40
1
 40
1
 40
1
 10
160.685256
 20
167.952470
 30
0.0
 10
160.685256
 20
167.639080
 30
0.0
 10
160.518064
 20
167.349494
 30
0.0
 10
160.246660
 20
167.192799
 30
0.0
  0
SPLINE
  5
13e
100
AcDbEntity
  8
newlayer
 62
1
100
AcDbSpline
 70
8
 71
3
 72
8
 73
4
 74
0
 40
0
 40
0
 40
0
 40
0
 40
1
 40
1
 40
1
 40
1
 10
160.246660
 20
167.192799
 30
0.0
 10
159.975255
 20
167.036104
 30
0.0
 10
159.640871
 20
167.036104
 30
0.0
 10
159.369467
 20
167.192799
 30
0.0
  0
SPLINE
  5
13f
100
AcDbEntity
  8
newlayer
 62
1
100
AcDbSpline
 70
8
 71
3
 72
8
 73
4
 74
0
 40
0
 40
0
 40
0
 40
0
 40
1
 40
1
 40
1
 40
1
 10
159.369467
 20
167.192799
 30
0.0
 10
159.098062
 20
167.349494
 30
0.0
 10
158.930870
 20
167.639080
 30
0.0
 10
158.930870
 20
167.952470
 30
0.0
  0
SPLINE
  5
140
100
AcDbEntity
  8
newlayer
 62
1
100
AcDbSpline
 70
8
 71
3
 72
8
 73
4
 74
0
 40
0
 40
0
 40
0
 40
0
 40
1
 40
1
 40
1
 40
1
 10
158.930870
 20
167.952470
 30
0.0
 10
158.930870
 20
168.265861
 30
0.0
 10
159.098062
 20
168.555446
 30
0.0
 10
159.369467
 20
168.712142
 30
0.0
  0
SPLINE
  5
141
100
AcDbEntity
  8
newlayer
 62
1
100
AcDbSpline
 70
8
 71
3
 72
8
 73
4
 74
0
 40
0
 40
0
 40
0
 40
0
 40
1
 40
1
 40
1
 40
1
 10
159.369467
 20
168.712142
 30
0.0
 10
159.640871
 20
168.868837
 30
0.0
 10
159.975255
 20
168.868837
 30
0.0
 10
160.246660
 20
168.712142
 30
0.0
  0
SPLINE
  5
142
100
AcDbEntity
  8
newlayer
 62
1
100
AcDbSpline
 70
8
 71
3
 72
8
 73
4
 74
0
 40
0
 40
0
 40
0
 40
0
 40
1
 40
1
 40
1
 40
1
 10
160.246660
 20
168.712142
 30
0.0
 10
160.518064
 20
168.555446
 30
0.0
 10
160.685256
 20
168.265861
 30
0.0
 10
160.685256
 20
167.952470
 30
0.0
  0
LWPOLYLINE
  5
143
100
AcDbEntity
  8
newlayer
 62
1
100
AcDbPolyline
 90
4
 70
1
 10
155.920002
 20
171.915860
 30
0.0
 10
163.666317
 20
171.915860
 30
0.0
 10
163.666317
 20
164.169545
 30
0.0
 10
155.920002
 20
164.169545
 30
0.0
  0
SPLINE
  5
144
100
AcDbEntity
  8
newlayer
 62
1
100
AcDbSpline
 70
8
 71
3
 72
8
 73
4
 74
0
 40
0
 40
0
 40
0
 40
0
 40
1
 40
1
 40
1
 40
1
 10
163.398143
 20
167.992600
 30
0.0
 10
163.398143
 20
166.722569
 30
0.0
 10
162.711037
 20
165.549012
 30
0.0
 10
161.595653
 20
164.913996
 30
0.0
  0
SPLINE
  5
145
100
AcDbEntity
  8
newlayer
 62
1
100
AcDbSpline
 70
8
 71
3
 72
8
 73
4
 74
0
 40
0
 40
0
 40
0
 40
0
 40
1
 40
1
 40
1
 40
1
 10
161.595653
 20
164.913996
 30
0.0
 10
160.480268
 20
164.278980
 30
0.0
 10
159.106058
 20
164.278980
 30
0.0
 10
157.990673
 20
164.913996
 30
0.0
  0
SPLINE
  5
146
100
AcDbEntity
  8
newlayer
 62
1
100
AcDbSpline
 70
8
 71
3
 72
8
 73
4
 74
0
 40
0
 40
0
 40
0
 40
0
 40
1
 40
1
 40
1
 40
1
 10
157.990673
 20
164.913996
 30
0.0
 10
156.875289
 20
165.549012
 30
0.0
 10
156.188184
 20
166.722569
 30
0.0
 10
156.188184
 20
167.992600
 30
0.0
  0
SPLINE
  5
147
100
AcDbEntity
  8
newlayer
 62
1
100
AcDbSpline
 70
8
 71
3
 72
8
 73
4
 74
0
 40
0
 40
0
 40
0
 40
0
 40
1
 40
1
 40
1
 40
1
 10
156.188184
 20
167.992600
 30
0.0
 10
156.188184
 20
169.262632
 30
0.0
 10
156.875289
 20
170.436189
 30
0.0
 10
157.990673
 20
171.071205
 30
0.0
  0
SPLINE
  5
148
100
AcDbEntity
  8
newlayer
 62
1
100
AcDbSpline
 70
8
 71
3
 72
8
 73
4
 74
0
 40
0
 40
0
 40
0
 40
0
 40
1
 40
1
 40
1
 40
1
 10
157.990673
 20
171.071205
 30
0.0
 10
159.106058
 20
171.706221
 30
0.0
 10
160.480268
 20
171.706221
 30
0.0
 10
161.595653
 20
171.071205
 30
0.0
  0
SPLINE
  5
149
100
AcDbEntity
  8
newlayer
 62
1
100
AcDbSpline
 70
8
 71
3
 72
8
 73
4
 74
0
 40
0
 40
0
 40
0
 40
0
 40
1
 40
1
 40
1
 40
1
 10
161.595653
 20
171.071205
 30
0.0
 10
162.711037
 20
170.436189
 30
0.0
 10
163.398143
 20
169.262632
 30
0.0
 10
163.398143
 20
167.992600
 30
0.0
  0
LWPOLYLINE
  5
14a
100
AcDbEntity
  8
newlayer
 62
1
100
AcDbPolyline
 90
1
 70
1
 10
160.685256
 20
167.952470
 30
0.0
  0
LWPOLYLINE
  5
14b
100
AcDbEntity
  8
newlayer
 62
1
100
AcDbPolyline
 90
1
 70
1
 10
163.398143
 20
167.992600
 30
0.0
  0
LWPOLYLINE
  5
14c
100
AcDbEntity
  8
newlayer
 62
3
100
AcDbPolyline
 90
4
 70
1
 10
147.396351
 20
182.535710
 30
0.0
 10
172.369009
 20
182.535710
 30
0.0
 10
172.369009
 20
158.720309
 30
0.0
 10
147.396351
 20
158.720309
 30
0.0
  0
ENDSEC
  0
SECTION
  2
OBJECTS
  0
DICTIONARY
  5
C
330
0
100
AcDbDictionary
  3
ACAD_GROUP
350
D
  3
ACAD_MLINESTYLE
350
17
  0
DICTIONARY
  5
D
330
C
100
AcDbDictionary
  0
DICTIONARY
  5
1A
330
C
100
AcDbDictionary
  0
DICTIONARY
  5
17
330
C
100
AcDbDictionary
  3
STANDARD
350
18
  0
DICTIONARY
  5
19
330
C
100
AcDbDictionary
  0
ENDSEC
  0
EOF
