<?xml version="1.0" encoding="UTF-8" standalone="no"?>
<svg
   xmlns:dc="http://purl.org/dc/elements/1.1/"
   xmlns:cc="http://creativecommons.org/ns#"
   xmlns:rdf="http://www.w3.org/1999/02/22-rdf-syntax-ns#"
   xmlns:svg="http://www.w3.org/2000/svg"
   xmlns="http://www.w3.org/2000/svg"
   xmlns:sodipodi="http://sodipodi.sourceforge.net/DTD/sodipodi-0.dtd"
   xmlns:inkscape="http://www.inkscape.org/namespaces/inkscape"
   width="450mm"
   height="250mm"
   id="svg3390"
   version="1.1"
   inkscape:version="0.91 r13725"
   sodipodi:docname="fomoBox5.svg">
  <metadata
     id="metadata3734">
    <rdf:RDF>
      <cc:Work
         rdf:about="">
        <dc:format>image/svg+xml</dc:format>
        <dc:type
           rdf:resource="http://purl.org/dc/dcmitype/StillImage" />
        <dc:title></dc:title>
      </cc:Work>
    </rdf:RDF>
  </metadata>
  <sodipodi:namedview
     pagecolor="#ffffff"
     bordercolor="#666666"
     borderopacity="1"
     objecttolerance="10"
     gridtolerance="10"
     guidetolerance="10"
     inkscape:pageopacity="0"
     inkscape:pageshadow="2"
     inkscape:window-width="1366"
     inkscape:window-height="715"
     id="namedview3732"
     showgrid="false"
     inkscape:zoom="0.50457915"
     inkscape:cx="711.56517"
     inkscape:cy="503.25399"
     inkscape:window-x="0"
     inkscape:window-y="0"
     inkscape:window-maximized="1"
     inkscape:current-layer="g3412"
     inkscape:document-units="mm"
     units="mm" />
  <desc
     id="desc3392">/home/drfraz/Pictures/does/Lightnight/fomoBox4.dxf - scale = 1.000000, origin = (0.000000, 0.000000), auto = True</desc>
  <defs
     id="defs3394">
    <marker
       id="DistanceX"
       orient="auto"
       refX="0"
       refY="0"
       style="overflow:visible">
      <path
         d="M 3,-3 -3,3 M 0,-5 0,5"
         style="stroke:#000000;stroke-width:0.5"
         id="path3397"
         inkscape:connector-curvature="0" />
    </marker>
    <pattern
       height="8"
       id="Hatch"
       patternUnits="userSpaceOnUse"
       width="8"
       x="0"
       y="0">
      <path
         d="M8 4 l-4,4"
         linecap="square"
         stroke="#000000"
         stroke-width="0.25"
         id="path3400" />
      <path
         d="M6 2 l-4,4"
         linecap="square"
         stroke="#000000"
         stroke-width="0.25"
         id="path3402" />
      <path
         d="M4 0 l-4,4"
         linecap="square"
         stroke="#000000"
         stroke-width="0.25"
         id="path3404" />
    </pattern>
    <symbol
       id="*MODEL_SPACE" />
    <symbol
       id="*PAPER_SPACE" />
  </defs>
  <g
     inkscape:groupmode="layer"
     inkscape:label="0"
     id="g3408"
     transform="translate(0,-166.53543)" />
  <g
     inkscape:groupmode="layer"
     inkscape:label="Layer_1"
     id="g3410"
     transform="translate(0,-166.53543)" />
  <g
     inkscape:groupmode="layer"
     inkscape:label="newlayer"
     id="g3412"
     transform="translate(0,-166.53543)">
    <g
       id="g4609"
       transform="translate(-210.07606,283.4045)">
      <path
         inkscape:connector-curvature="0"
         id="path3414"
         style="fill:none;stroke:#000000"
         d="m 311.81103,311.81103 43.6915,0 0,10.62992 35.11418,0 0,-10.62992 43.85095,0 0,10.62992 35.11417,0 0,-10.62992 43.85096,0 0,10.62992 35.11417,0 0,-10.62992 43.85095,0 0,10.62992 35.11418,0 0,-10.62992 43.85095,0 0,10.62992 35.11418,0 0,-10.62992 43.85096,0 0,10.62992 35.11417,0 0,-10.62992 43.69151,0 0,40.90747 -10.62992,0 0,35.11418 10.62992,0 0,41.06692 -10.62992,0 0,35.11418 10.62992,0 0,41.06693 -10.62992,0 0,35.11417 10.62992,0 0,40.90748 -43.69151,0 0,-10.62992 -35.11417,0 0,10.62992 -43.85096,0 0,-10.62992 -35.11418,0 0,10.62992 -43.85095,0 0,-10.62992 -35.11418,0 0,10.62992 -43.85095,0 0,-10.62992 -35.11417,0 0,10.62992 -43.85096,0 0,-10.62992 -35.11417,0 0,10.62992 -43.85095,0 0,-10.62992 -35.11418,0 0,10.62992 -43.6915,0 0,-40.90748 10.62992,0 0,-35.11417 -10.62992,0 0,-41.06693 10.62992,0 0,-35.11418 -10.62992,0 0,-41.06692 10.62992,0 0,-35.11418 -10.62992,0 0,-40.90747 0,0 0,0 z" />
      <path
         inkscape:connector-curvature="0"
         id="path3416"
         style="fill:none;stroke:#000000"
         d="m 1184.5456,317.75658 43.6914,0 0,10.62992 35.1143,0 0,-10.62992 43.8509,0 0,10.62992 35.1141,0 0,-10.62992 43.851,0 0,10.62992 35.1142,0 0,-10.62992 43.851,0 0,10.62992 35.1142,0 0,-10.62992 43.8509,0 0,10.62992 35.1142,0 0,-10.62992 43.8509,0 0,10.62992 35.1142,0 0,-10.62992 43.6915,0 0,40.90747 -10.6299,0 0,35.11418 10.6299,0 0,41.06692 -10.6299,0 0,35.11418 10.6299,0 0,41.06693 -10.6299,0 0,35.11417 10.6299,0 0,40.90748 -43.6915,0 0,-10.62992 -35.1142,0 0,10.62992 -43.8509,0 0,-10.62992 -35.1142,0 0,10.62992 -43.8509,0 0,-10.62992 -35.1142,0 0,10.62992 -43.851,0 0,-10.62992 -35.1142,0 0,10.62992 -43.851,0 0,-10.62992 -35.1141,0 0,10.62992 -43.8509,0 0,-10.62992 -35.1143,0 0,10.62992 -43.6914,0 0,-40.90748 10.6299,0 0,-35.11417 -10.6299,0 0,-41.06693 10.6299,0 0,-35.11418 -10.6299,0 0,-41.06692 10.6299,0 0,-35.11418 -10.6299,0 0,-40.90747 0,0 0,0 z" />
      <path
         inkscape:connector-curvature="0"
         id="path3418"
         style="fill:none;stroke:#000000"
         d="m 311.81103,14.173228 43.3726,0 0,-10.629921 35.75197,0 0,10.629921 43.21316,0 0,-10.629921 35.75197,0 0,10.629921 43.21317,0 0,-10.629921 35.75196,0 0,10.629921 43.21316,0 0,-10.629921 35.75197,0 0,10.629921 43.21316,0 0,-10.629921 35.75197,0 0,10.629921 43.21316,0 0,-10.629921 35.75197,0 0,10.629921 43.37261,0 0,39.135827 -10.62992,0 0,35.114173 10.62992,0 0,49.925192 -10.62992,0 0,35.11418 10.62992,0 0,49.92519 -10.62992,0 0,35.11417 10.62992,0 0,39.13584 -43.37261,0 0,10.62992 -35.75197,0 0,-10.62992 -43.21316,0 0,10.62992 -35.75197,0 0,-10.62992 -43.21316,0 0,10.62992 -35.75197,0 0,-10.62992 -43.21316,0 0,10.62992 -35.75196,0 0,-10.62992 -43.21317,0 0,10.62992 -35.75197,0 0,-10.62992 -43.21316,0 0,10.62992 -35.75197,0 0,-10.62992 -43.3726,0 0,-39.13584 10.62992,0 0,-35.11417 -10.62992,0 0,-49.92519 10.62992,0 0,-35.11418 -10.62992,0 0,-49.925192 10.62992,0 0,-35.114173 -10.62992,0 0,-39.135827 0,0 0,0 z" />
      <path
         inkscape:connector-curvature="0"
         id="path3420"
         style="fill:none;stroke:#000000"
         d="m 349.16191,347.67651 144.64967,0 0,199.96312 -144.64967,0 0,-199.96312 0,0 0,0 z" />
      <path
         inkscape:connector-curvature="0"
         id="path3422"
         style="fill:none;stroke:#000000"
         d="m 638.15359,347.44891 147.68803,0 0,200.41832 -147.68803,0 0,-200.41832 0,0 0,0 z" />
      <path
         inkscape:connector-curvature="0"
         id="path3424"
         style="fill:none;stroke:#000000"
         d="m 849.41518,6.433508 43.3726,0 0,-10.629917 35.75197,0 0,10.629917 43.21313,0 0,-10.629917 35.75202,0 0,10.629917 43.2131,0 0,-10.629917 35.752,0 0,10.629917 43.2132,0 0,-10.629917 35.7519,0 0,10.629917 43.2132,0 0,-10.629917 35.752,0 0,10.629917 43.2131,0 0,-10.629917 35.752,0 0,10.629917 43.3726,0 0,39.135827 -10.6299,0 0,35.114173 10.6299,0 0,49.925192 -10.6299,0 0,35.11418 10.6299,0 0,49.92519 -10.6299,0 0,35.11418 10.6299,0 0,39.13583 -43.3726,0 0,10.62992 -35.752,0 0,-10.62992 -43.2131,0 0,10.62992 -35.752,0 0,-10.62992 -43.2132,0 0,10.62992 -35.7519,0 0,-10.62992 -43.2132,0 0,10.62992 -35.752,0 0,-10.62992 -43.2131,0 0,10.62992 -35.75202,0 0,-10.62992 -43.21313,0 0,10.62992 -35.75197,0 0,-10.62992 -43.3726,0 0,-39.13583 10.62992,0 0,-35.11418 -10.62992,0 0,-49.92519 10.62992,0 0,-35.11418 -10.62992,0 0,-49.925192 10.62992,0 0,-35.114173 -10.62992,0 0,-39.135827 0,0 0,0 z" />
      <path
         inkscape:connector-curvature="0"
         id="path3426"
         style="fill:none;stroke:#000000"
         d="m 867.08929,334.33205 38.81691,0 0,-10.62992 35.75199,0 0,10.62992 49.28737,0 0,-10.62992 35.75204,0 0,10.62992 49.2874,0 0,-10.62992 35.7519,0 0,10.62992 38.817,0 0,29.95865 10.6298,0 0,35.75198 -10.6298,0 0,40.42913 10.6298,0 0,35.75197 -10.6298,0 0,40.42913 10.6298,0 0,35.75197 -10.6298,0 0,29.95866 -38.817,0 0,10.62992 -35.7519,0 0,-10.62992 -49.2874,0 0,10.62992 -35.75204,0 0,-10.62992 -49.28737,0 0,10.62992 -35.75199,0 0,-10.62992 -38.81691,0 0,-29.95866 -10.62993,0 0,-35.75197 10.62993,0 0,-40.42913 -10.62993,0 0,-35.75197 10.62993,0 0,-40.42913 -10.62993,0 0,-35.75198 10.62993,0 0,-29.95865 0,0 0,0 z" />
      <path
         inkscape:connector-curvature="0"
         id="path3438"
         style="fill:none;stroke:#000000"
         d="m 1393.169,16.988361 38.8169,0 0,-10.629918 35.752,0 0,10.629918 49.2874,0 0,-10.629918 35.7519,0 0,10.629918 49.2875,0 0,-10.629918 35.7519,0 0,10.629918 38.8169,0 0,29.958658 10.63,0 0,35.751975 -10.63,0 0,40.429136 10.63,0 0,35.75196 -10.63,0 0,40.42914 10.63,0 0,35.75196 -10.63,0 0,29.95867 -38.8169,0 0,10.62992 -35.7519,0 0,-10.62992 -49.2875,0 0,10.62992 -35.7519,0 0,-10.62992 -49.2874,0 0,10.62992 -35.752,0 0,-10.62992 -38.8169,0 0,-29.95867 -10.63,0 0,-35.75196 10.63,0 0,-40.42914 -10.63,0 0,-35.75196 10.63,0 0,-40.429136 -10.63,0 0,-35.751975 10.63,0 0,-29.958658 0,0 0,0 z" />
      <path
         inkscape:connector-curvature="0"
         id="path3440"
         style="fill:none;stroke:#000000"
         d="m 1428.9339,44.75813 23.5337,0 0,188.52301 -23.5337,0 0,-188.52301 0,0 0,0 z" />
      <path
         inkscape:connector-curvature="0"
         id="path3442"
         style="fill:none;stroke:#000000"
         d="m 1475.8364,44.75813 23.5336,0 0,188.52301 -23.5336,0 0,-188.52301 0,0 0,0 z" />
      <path
         inkscape:connector-curvature="0"
         id="path3444"
         style="fill:none;stroke:#000000"
         d="m 1522.7388,44.75812 23.5336,0 0,188.52302 -23.5336,0 0,-188.52302 0,0 0,0 z" />
      <path
         inkscape:connector-curvature="0"
         id="path3446"
         style="fill:none;stroke:#000000"
         d="m 1569.6412,44.75813 23.5335,0 0,188.52301 -23.5335,0 0,-188.52301 0,0 0,0 z" />
      <path
         inkscape:connector-curvature="0"
         id="path3448"
         style="fill:none;stroke:#000000"
         d="m 1616.5436,44.75812 23.5336,0 0,188.52302 -23.5336,0 0,-188.52302 0,0 0,0 z" />
      <path
         inkscape:connector-curvature="0"
         id="path3450"
         style="fill:none;stroke:#000000"
         d="m 352.63614,58.548639 23.11194,0 0,188.523011 -23.11194,0 0,-188.523011 0,0 0,0 z" />
      <path
         inkscape:connector-curvature="0"
         id="path3452"
         style="fill:none;stroke:#000000"
         d="m 403.73008,58.548639 23.11185,0 0,188.523011 -23.11185,0 0,-188.523011 0,0 0,0 z" />
      <path
         inkscape:connector-curvature="0"
         id="path3454"
         style="fill:none;stroke:#000000"
         d="m 454.824,58.548628 23.11188,0 0,188.523022 -23.11188,0 0,-188.523022 0,0 0,0 z" />
      <path
         inkscape:connector-curvature="0"
         id="path3456"
         style="fill:none;stroke:#000000"
         d="m 505.91783,58.548639 23.11188,0 0,188.523011 -23.11188,0 0,-188.523011 0,0 0,0 z" />
      <path
         inkscape:connector-curvature="0"
         id="path3458"
         style="fill:none;stroke:#000000"
         d="m 557.01175,58.548628 23.11189,0 0,188.523022 -23.11189,0 0,-188.523022 0,0 0,0 z" />
      <path
         inkscape:connector-curvature="0"
         id="path3460"
         style="fill:none;stroke:#000000"
         d="m 608.1057,56.972073 23.11193,0 0,188.523007 -23.11193,0 0,-188.523007 0,0 0,0 z" />
      <path
         inkscape:connector-curvature="0"
         id="path3462"
         style="fill:none;stroke:#000000"
         d="m 659.19963,56.972073 23.11186,0 0,188.523007 -23.11186,0 0,-188.523007 0,0 0,0 z" />
      <path
         inkscape:connector-curvature="0"
         id="path3464"
         style="fill:none;stroke:#000000"
         d="m 710.29357,56.972073 23.11188,0 0,188.523007 -23.11188,0 0,-188.523007 0,0 0,0 z" />
      <path
         inkscape:connector-curvature="0"
         id="path3466"
         style="fill:none;stroke:#000000"
         d="m 761.38745,56.972062 23.11188,0 0,188.523018 -23.11188,0 0,-188.523018 0,0 0,0 z" />
      <path
         inkscape:connector-curvature="0"
         id="path3468"
         style="fill:none;stroke:#000000"
         d="m 891.81684,63.278291 23.11194,0 0,188.523009 -23.11194,0 0,-188.523009 0,0 0,0 z" />
      <path
         inkscape:connector-curvature="0"
         id="path3470"
         style="fill:none;stroke:#000000"
         d="m 942.91078,63.278291 23.11181,0 0,188.523009 -23.11181,0 0,-188.523009 0,0 0,0 z" />
      <path
         inkscape:connector-curvature="0"
         id="path3472"
         style="fill:none;stroke:#000000"
         d="m 994.00472,63.278284 23.11188,0 0,188.523016 -23.11188,0 0,-188.523016 0,0 0,0 z" />
      <path
         inkscape:connector-curvature="0"
         id="path3474"
         style="fill:none;stroke:#000000"
         d="m 1045.0986,63.278291 23.1118,0 0,188.523009 -23.1118,0 0,-188.523009 0,0 0,0 z" />
      <path
         inkscape:connector-curvature="0"
         id="path3476"
         style="fill:none;stroke:#000000"
         d="m 1096.1925,63.278284 23.1118,0 0,188.523016 -23.1118,0 0,-188.523016 0,0 0,0 z" />
      <path
         inkscape:connector-curvature="0"
         id="path3478"
         style="fill:none;stroke:#000000"
         d="m 1147.2864,61.701729 23.1119,0 0,188.523001 -23.1119,0 0,-188.523001 0,0 0,0 z" />
      <path
         inkscape:connector-curvature="0"
         id="path3480"
         style="fill:none;stroke:#000000"
         d="m 1198.3803,61.701729 23.1119,0 0,188.523001 -23.1119,0 0,-188.523001 0,0 0,0 z" />
      <path
         inkscape:connector-curvature="0"
         id="path3482"
         style="fill:none;stroke:#000000"
         d="m 532.28103,412.89124 c 0,1.11044 -0.59241,2.13653 -1.55408,2.69175" />
      <path
         inkscape:connector-curvature="0"
         id="path3484"
         style="fill:none;stroke:#000000"
         d="m 530.72695,415.58299 c -0.96167,0.55521 -2.1465,0.55521 -3.10817,0" />
      <path
         inkscape:connector-curvature="0"
         id="path3486"
         style="fill:none;stroke:#000000"
         d="m 527.61878,415.58299 c -0.96166,-0.55522 -1.55408,-1.58131 -1.55408,-2.69175" />
      <path
         inkscape:connector-curvature="0"
         id="path3488"
         style="fill:none;stroke:#000000"
         d="m 526.0647,412.89124 c 0,-1.11044 0.59242,-2.13653 1.55408,-2.69175" />
      <path
         inkscape:connector-curvature="0"
         id="path3490"
         style="fill:none;stroke:#000000"
         d="m 527.61878,410.19949 c 0.96167,-0.55522 2.1465,-0.55522 3.10817,0" />
      <path
         inkscape:connector-curvature="0"
         id="path3492"
         style="fill:none;stroke:#000000"
         d="m 530.72695,410.19949 c 0.96167,0.55522 1.55408,1.58131 1.55408,2.69175" />
      <path
         inkscape:connector-curvature="0"
         id="path3494"
         style="fill:none;stroke:#000000"
         d="m 606.52765,412.97496 c 0,1.11044 -0.59241,2.13653 -1.55408,2.69175" />
      <path
         inkscape:connector-curvature="0"
         id="path3496"
         style="fill:none;stroke:#000000"
         d="m 604.97357,415.66671 c -0.96167,0.55521 -2.14649,0.55521 -3.10816,0" />
      <path
         inkscape:connector-curvature="0"
         id="path3498"
         style="fill:none;stroke:#000000"
         d="m 601.86541,415.66671 c -0.96167,-0.55522 -1.55409,-1.58131 -1.55409,-2.69175" />
      <path
         inkscape:connector-curvature="0"
         id="path3500"
         style="fill:none;stroke:#000000"
         d="m 600.31132,412.97496 c 0,-1.71659 1.39157,-3.10817 3.10816,-3.10817" />
      <path
         inkscape:connector-curvature="0"
         id="path3502"
         style="fill:none;stroke:#000000"
         d="m 603.41948,409.86679 c 1.7166,0 3.10817,1.39158 3.10817,3.10817" />
      <path
         inkscape:connector-curvature="0"
         id="path3504"
         style="fill:none;stroke:#000000"
         d="m 606.52765,457.255 c 0,1.11044 -0.59241,2.13653 -1.55408,2.69175" />
      <path
         inkscape:connector-curvature="0"
         id="path3506"
         style="fill:none;stroke:#000000"
         d="m 604.97357,459.94675 c -0.96167,0.55522 -2.14649,0.55522 -3.10816,0" />
      <path
         inkscape:connector-curvature="0"
         id="path3508"
         style="fill:none;stroke:#000000"
         d="m 601.86541,459.94675 c -0.96167,-0.55522 -1.55409,-1.58131 -1.55409,-2.69175" />
      <path
         inkscape:connector-curvature="0"
         id="path3510"
         style="fill:none;stroke:#000000"
         d="m 600.31132,457.255 c 0,-1.71659 1.39157,-3.10817 3.10816,-3.10817" />
      <path
         inkscape:connector-curvature="0"
         id="path3512"
         style="fill:none;stroke:#000000"
         d="m 603.41948,454.14683 c 1.7166,0 3.10817,1.39158 3.10817,3.10817" />
      <path
         inkscape:connector-curvature="0"
         id="path3514"
         style="fill:none;stroke:#000000"
         d="m 532.19733,457.17135 c 0,1.71659 -1.39157,3.10816 -3.10816,3.10816" />
      <path
         inkscape:connector-curvature="0"
         id="path3516"
         style="fill:none;stroke:#000000"
         d="m 529.08917,460.27951 c -1.71659,0 -3.10816,-1.39157 -3.10816,-3.10816" />
      <path
         inkscape:connector-curvature="0"
         id="path3518"
         style="fill:none;stroke:#000000"
         d="m 525.98101,457.17135 c 0,-1.71659 1.39157,-3.10817 3.10816,-3.10817" />
      <path
         inkscape:connector-curvature="0"
         id="path3520"
         style="fill:none;stroke:#000000"
         d="m 529.08917,454.06318 c 1.71659,0 3.10816,1.39158 3.10816,3.10817" />
      <path
         inkscape:connector-curvature="0"
         id="path3522"
         style="fill:none;stroke:#ff0000"
         d="m 569.3572,457.25503 c 0,1.11043 -0.5924,2.13653 -1.55407,2.69174" />
      <path
         inkscape:connector-curvature="0"
         id="path3524"
         style="fill:none;stroke:#ff0000"
         d="m 567.80313,459.94677 c -0.96167,0.55523 -2.1465,0.55523 -3.10817,0" />
      <path
         inkscape:connector-curvature="0"
         id="path3526"
         style="fill:none;stroke:#ff0000"
         d="m 564.69496,459.94677 c -0.96167,-0.55521 -1.55409,-1.58131 -1.55409,-2.69174" />
      <path
         inkscape:connector-curvature="0"
         id="path3528"
         style="fill:none;stroke:#ff0000"
         d="m 563.14087,457.25503 c 0,-1.11044 0.59242,-2.13653 1.55409,-2.69175" />
      <path
         inkscape:connector-curvature="0"
         id="path3530"
         style="fill:none;stroke:#ff0000"
         d="m 564.69496,454.56328 c 0.96167,-0.55522 2.1465,-0.55522 3.10817,0" />
      <path
         inkscape:connector-curvature="0"
         id="path3532"
         style="fill:none;stroke:#ff0000"
         d="m 567.80313,454.56328 c 0.96167,0.55522 1.55407,1.58131 1.55407,2.69175" />
      <path
         inkscape:connector-curvature="0"
         id="path3534"
         style="fill:none;stroke:#ff0000"
         d="m 578.96979,457.11283 c 0,4.50011 -2.43462,8.65839 -6.38677,10.90844" />
      <path
         inkscape:connector-curvature="0"
         id="path3536"
         style="fill:none;stroke:#ff0000"
         d="m 572.58302,468.02127 c -3.95215,2.25006 -8.8214,2.25006 -12.77355,0" />
      <path
         inkscape:connector-curvature="0"
         id="path3538"
         style="fill:none;stroke:#ff0000"
         d="m 559.80947,468.02127 c -3.95214,-2.25005 -6.38677,-6.40833 -6.38677,-10.90844" />
      <path
         inkscape:connector-curvature="0"
         id="path3540"
         style="fill:none;stroke:#ff0000"
         d="m 553.4227,457.11283 c 0,-4.50011 2.43463,-8.65838 6.38677,-10.90844" />
      <path
         inkscape:connector-curvature="0"
         id="path3542"
         style="fill:none;stroke:#ff0000"
         d="m 559.80947,446.20439 c 3.95215,-2.25005 8.8214,-2.25005 12.77355,0" />
      <path
         inkscape:connector-curvature="0"
         id="path3544"
         style="fill:none;stroke:#ff0000"
         d="m 572.58302,446.20439 c 3.95215,2.25006 6.38677,6.40833 6.38677,10.90844" />
      <path
         inkscape:connector-curvature="0"
         id="path3546"
         style="fill:none;stroke:#000000"
         d="m 1249.4743,61.701729 23.1118,0 0,188.523001 -23.1118,0 0,-188.523001 0,0 0,0 z" />
      <path
         inkscape:connector-curvature="0"
         id="path3548"
         style="fill:none;stroke:#000000"
         d="m 681.16019,412.48078 c 0,1.11044 -0.59241,2.13654 -1.55407,2.69175" />
      <path
         inkscape:connector-curvature="0"
         id="path3550"
         style="fill:none;stroke:#000000"
         d="m 679.60612,415.17253 c -0.96167,0.55522 -2.14651,0.55522 -3.10817,0" />
      <path
         inkscape:connector-curvature="0"
         id="path3552"
         style="fill:none;stroke:#000000"
         d="m 676.49795,415.17253 c -0.96167,-0.55521 -1.55409,-1.58131 -1.55409,-2.69175" />
      <path
         inkscape:connector-curvature="0"
         id="path3554"
         style="fill:none;stroke:#000000"
         d="m 674.94386,412.48078 c 0,-1.11044 0.59242,-2.13652 1.55409,-2.69175" />
      <path
         inkscape:connector-curvature="0"
         id="path3556"
         style="fill:none;stroke:#000000"
         d="m 676.49795,409.78903 c 0.96166,-0.55521 2.1465,-0.55521 3.10817,0" />
      <path
         inkscape:connector-curvature="0"
         id="path3558"
         style="fill:none;stroke:#000000"
         d="m 679.60612,409.78903 c 0.96166,0.55523 1.55407,1.58131 1.55407,2.69175" />
      <path
         inkscape:connector-curvature="0"
         id="path3560"
         style="fill:none;stroke:#000000"
         d="m 755.40682,412.5645 c 0,1.11044 -0.59242,2.13653 -1.55409,2.69175" />
      <path
         inkscape:connector-curvature="0"
         id="path3562"
         style="fill:none;stroke:#000000"
         d="m 753.85273,415.25625 c -0.96167,0.55522 -2.14649,0.55522 -3.10816,0" />
      <path
         inkscape:connector-curvature="0"
         id="path3564"
         style="fill:none;stroke:#000000"
         d="m 750.74457,415.25625 c -0.96167,-0.55522 -1.55408,-1.58131 -1.55408,-2.69175" />
      <path
         inkscape:connector-curvature="0"
         id="path3566"
         style="fill:none;stroke:#000000"
         d="m 749.19049,412.5645 c 0,-1.71659 1.39157,-3.10817 3.10816,-3.10817" />
      <path
         inkscape:connector-curvature="0"
         id="path3568"
         style="fill:none;stroke:#000000"
         d="m 752.29865,409.45633 c 1.71659,0 3.10817,1.39158 3.10817,3.10817" />
      <path
         inkscape:connector-curvature="0"
         id="path3570"
         style="fill:none;stroke:#000000"
         d="m 755.40682,456.84455 c 0,1.11044 -0.59242,2.13652 -1.55409,2.69175" />
      <path
         inkscape:connector-curvature="0"
         id="path3572"
         style="fill:none;stroke:#000000"
         d="m 753.85273,459.5363 c -0.96167,0.55521 -2.14649,0.55521 -3.10816,0" />
      <path
         inkscape:connector-curvature="0"
         id="path3574"
         style="fill:none;stroke:#000000"
         d="m 750.74457,459.5363 c -0.96167,-0.55523 -1.55408,-1.58131 -1.55408,-2.69175" />
      <path
         inkscape:connector-curvature="0"
         id="path3576"
         style="fill:none;stroke:#000000"
         d="m 749.19049,456.84455 c 0,-1.71659 1.39157,-3.10817 3.10816,-3.10817" />
      <path
         inkscape:connector-curvature="0"
         id="path3578"
         style="fill:none;stroke:#000000"
         d="m 752.29865,453.73638 c 1.71659,0 3.10817,1.39158 3.10817,3.10817" />
      <path
         inkscape:connector-curvature="0"
         id="path3580"
         style="fill:none;stroke:#000000"
         d="m 681.07649,456.76089 c 0,1.71659 -1.39157,3.10816 -3.10816,3.10816" />
      <path
         inkscape:connector-curvature="0"
         id="path3582"
         style="fill:none;stroke:#000000"
         d="m 677.96833,459.86905 c -1.71659,0 -3.10816,-1.39157 -3.10816,-3.10816" />
      <path
         inkscape:connector-curvature="0"
         id="path3584"
         style="fill:none;stroke:#000000"
         d="m 674.86017,456.76089 c 0,-1.71659 1.39157,-3.10817 3.10816,-3.10817" />
      <path
         inkscape:connector-curvature="0"
         id="path3586"
         style="fill:none;stroke:#000000"
         d="m 677.96833,453.65272 c 1.71659,0 3.10816,1.39158 3.10816,3.10817" />
      <path
         inkscape:connector-curvature="0"
         id="path3588"
         style="fill:none;stroke:#ff0000"
         d="m 718.23636,456.84457 c 0,1.11044 -0.5924,2.13653 -1.55407,2.69174" />
      <path
         inkscape:connector-curvature="0"
         id="path3590"
         style="fill:none;stroke:#ff0000"
         d="m 716.68229,459.53631 c -0.96167,0.55523 -2.1465,0.55523 -3.10817,0" />
      <path
         inkscape:connector-curvature="0"
         id="path3592"
         style="fill:none;stroke:#ff0000"
         d="m 713.57412,459.53631 c -0.96167,-0.55521 -1.55408,-1.5813 -1.55408,-2.69174" />
      <path
         inkscape:connector-curvature="0"
         id="path3594"
         style="fill:none;stroke:#ff0000"
         d="m 712.02004,456.84457 c 0,-1.11044 0.59241,-2.13653 1.55408,-2.69175" />
      <path
         inkscape:connector-curvature="0"
         id="path3596"
         style="fill:none;stroke:#ff0000"
         d="m 713.57412,454.15282 c 0.96167,-0.55522 2.1465,-0.55522 3.10817,0" />
      <path
         inkscape:connector-curvature="0"
         id="path3598"
         style="fill:none;stroke:#ff0000"
         d="m 716.68229,454.15282 c 0.96167,0.55522 1.55407,1.58131 1.55407,2.69175" />
      <path
         inkscape:connector-curvature="0"
         id="path3600"
         style="fill:none;stroke:#000000"
         d="m 1300.5682,61.701718 23.1119,0 0,188.523012 -23.1119,0 0,-188.523012 0,0 0,0 z" />
      <path
         inkscape:connector-curvature="0"
         id="path3602"
         style="fill:none;stroke:#ff0000"
         d="m 727.84896,456.70237 c 0,4.50012 -2.43463,8.65839 -6.38678,10.90845" />
      <path
         inkscape:connector-curvature="0"
         id="path3604"
         style="fill:none;stroke:#ff0000"
         d="m 721.46218,467.61082 c -3.95214,2.25005 -8.82139,2.25005 -12.77355,0" />
      <path
         inkscape:connector-curvature="0"
         id="path3606"
         style="fill:none;stroke:#ff0000"
         d="m 708.68863,467.61082 c -3.95214,-2.25006 -6.38676,-6.40833 -6.38676,-10.90845" />
      <path
         inkscape:connector-curvature="0"
         id="path3608"
         style="fill:none;stroke:#ff0000"
         d="m 702.30187,456.70237 c 0,-4.50011 2.43462,-8.65838 6.38676,-10.90844" />
      <path
         inkscape:connector-curvature="0"
         id="path3610"
         style="fill:none;stroke:#ff0000"
         d="m 708.68863,445.79393 c 3.95216,-2.25005 8.82141,-2.25005 12.77355,0" />
      <path
         inkscape:connector-curvature="0"
         id="path3612"
         style="fill:none;stroke:#ff0000"
         d="m 721.46218,445.79393 c 3.95215,2.25006 6.38678,6.40833 6.38678,10.90844" />
      <path
         inkscape:connector-curvature="0"
         id="path3614"
         style="fill:none;stroke:#ff0000"
         d="m 552.47244,443.21152 27.44758,0 0,27.44757 -27.44758,0 0,-27.44757 0,0 0,0 z" />
      <path
         inkscape:connector-curvature="0"
         id="path3616"
         style="fill:none;stroke:#000000"
         d="m 386.6155,411.40485 c 0,1.11044 -0.5924,2.13653 -1.55407,2.69175" />
      <path
         inkscape:connector-curvature="0"
         id="path3618"
         style="fill:none;stroke:#000000"
         d="m 385.06143,414.0966 c -0.96167,0.55522 -2.1465,0.55522 -3.10817,0" />
      <path
         inkscape:connector-curvature="0"
         id="path3620"
         style="fill:none;stroke:#000000"
         d="m 381.95326,414.0966 c -0.96167,-0.55522 -1.55408,-1.58131 -1.55408,-2.69175" />
      <path
         inkscape:connector-curvature="0"
         id="path3622"
         style="fill:none;stroke:#000000"
         d="m 380.39918,411.40485 c 0,-1.11044 0.59241,-2.13653 1.55408,-2.69175" />
      <path
         inkscape:connector-curvature="0"
         id="path3624"
         style="fill:none;stroke:#000000"
         d="m 381.95326,408.7131 c 0.96167,-0.55522 2.1465,-0.55522 3.10817,0" />
      <path
         inkscape:connector-curvature="0"
         id="path3626"
         style="fill:none;stroke:#000000"
         d="m 385.06143,408.7131 c 0.96167,0.55522 1.55407,1.58131 1.55407,2.69175" />
      <path
         inkscape:connector-curvature="0"
         id="path3628"
         style="fill:none;stroke:#000000"
         d="m 460.86213,411.48857 c 0,1.11044 -0.59242,2.13653 -1.55409,2.69175" />
      <path
         inkscape:connector-curvature="0"
         id="path3630"
         style="fill:none;stroke:#000000"
         d="m 459.30804,414.18032 c -0.96166,0.55521 -2.14649,0.55521 -3.10816,0" />
      <path
         inkscape:connector-curvature="0"
         id="path3632"
         style="fill:none;stroke:#000000"
         d="m 456.19988,414.18032 c -0.96166,-0.55522 -1.55408,-1.58131 -1.55408,-2.69175" />
      <path
         inkscape:connector-curvature="0"
         id="path3634"
         style="fill:none;stroke:#000000"
         d="m 454.6458,411.48857 c 0,-1.71659 1.39157,-3.10817 3.10816,-3.10817" />
      <path
         inkscape:connector-curvature="0"
         id="path3636"
         style="fill:none;stroke:#000000"
         d="m 457.75396,408.3804 c 1.71659,0 3.10817,1.39158 3.10817,3.10817" />
      <path
         inkscape:connector-curvature="0"
         id="path3638"
         style="fill:none;stroke:#000000"
         d="m 460.86213,455.76862 c 0,1.11044 -0.59242,2.13652 -1.55409,2.69175" />
      <path
         inkscape:connector-curvature="0"
         id="path3640"
         style="fill:none;stroke:#000000"
         d="m 459.30804,458.46037 c -0.96166,0.55521 -2.14649,0.55521 -3.10816,0" />
      <path
         inkscape:connector-curvature="0"
         id="path3642"
         style="fill:none;stroke:#000000"
         d="m 456.19988,458.46037 c -0.96166,-0.55523 -1.55408,-1.58131 -1.55408,-2.69175" />
      <path
         inkscape:connector-curvature="0"
         id="path3644"
         style="fill:none;stroke:#000000"
         d="m 454.6458,455.76862 c 0,-1.7166 1.39157,-3.10817 3.10816,-3.10817" />
      <path
         inkscape:connector-curvature="0"
         id="path3646"
         style="fill:none;stroke:#000000"
         d="m 457.75396,452.66045 c 1.71659,0 3.10817,1.39157 3.10817,3.10817" />
      <path
         inkscape:connector-curvature="0"
         id="path3648"
         style="fill:none;stroke:#000000"
         d="m 386.5318,455.68496 c 0,1.71659 -1.39156,3.10816 -3.10816,3.10816" />
      <path
         inkscape:connector-curvature="0"
         id="path3650"
         style="fill:none;stroke:#000000"
         d="m 383.42364,458.79312 c -1.71659,0 -3.10816,-1.39157 -3.10816,-3.10816" />
      <path
         inkscape:connector-curvature="0"
         id="path3652"
         style="fill:none;stroke:#000000"
         d="m 380.31548,455.68496 c 0,-1.71659 1.39157,-3.10817 3.10816,-3.10817" />
      <path
         inkscape:connector-curvature="0"
         id="path3654"
         style="fill:none;stroke:#000000"
         d="m 383.42364,452.57679 c 1.7166,0 3.10816,1.39158 3.10816,3.10817" />
      <path
         inkscape:connector-curvature="0"
         id="path3656"
         style="fill:none;stroke:#ff0000"
         d="m 423.69168,455.76864 c 0,1.11044 -0.59241,2.13653 -1.55408,2.69174" />
      <path
         inkscape:connector-curvature="0"
         id="path3658"
         style="fill:none;stroke:#ff0000"
         d="m 422.1376,458.46038 c -0.96167,0.55523 -2.1465,0.55523 -3.10817,0" />
      <path
         inkscape:connector-curvature="0"
         id="path3660"
         style="fill:none;stroke:#ff0000"
         d="m 419.02943,458.46038 c -0.96166,-0.55521 -1.55408,-1.5813 -1.55408,-2.69174" />
      <path
         inkscape:connector-curvature="0"
         id="path3662"
         style="fill:none;stroke:#ff0000"
         d="m 417.47535,455.76864 c 0,-1.11044 0.59242,-2.13653 1.55408,-2.69175" />
      <path
         inkscape:connector-curvature="0"
         id="path3664"
         style="fill:none;stroke:#ff0000"
         d="m 419.02943,453.07689 c 0.96167,-0.55522 2.1465,-0.55522 3.10817,0" />
      <path
         inkscape:connector-curvature="0"
         id="path3666"
         style="fill:none;stroke:#ff0000"
         d="m 422.1376,453.07689 c 0.96167,0.55522 1.55408,1.58131 1.55408,2.69175" />
      <path
         inkscape:connector-curvature="0"
         id="path3668"
         style="fill:none;stroke:#00ff00"
         d="m 522.27053,405.58213 88.4858,0 0,84.38528 -88.4858,0 0,-84.38528 0,0 0,0 z" />
      <path
         inkscape:connector-curvature="0"
         id="path3670"
         style="fill:none;stroke:#ff0000"
         d="m 433.30427,455.62644 c 0,4.50012 -2.43462,8.65839 -6.38678,10.90844" />
      <path
         inkscape:connector-curvature="0"
         id="path3672"
         style="fill:none;stroke:#ff0000"
         d="m 426.91749,466.53488 c -3.95214,2.25006 -8.82139,2.25006 -12.77355,0" />
      <path
         inkscape:connector-curvature="0"
         id="path3674"
         style="fill:none;stroke:#ff0000"
         d="m 414.14394,466.53488 c -3.95214,-2.25005 -6.38676,-6.40832 -6.38676,-10.90844" />
      <path
         inkscape:connector-curvature="0"
         id="path3676"
         style="fill:none;stroke:#ff0000"
         d="m 407.75718,455.62644 c 0,-4.50011 2.43462,-8.65838 6.38676,-10.90844" />
      <path
         inkscape:connector-curvature="0"
         id="path3678"
         style="fill:none;stroke:#ff0000"
         d="m 414.14394,444.718 c 3.95216,-2.25005 8.82141,-2.25005 12.77355,0" />
      <path
         inkscape:connector-curvature="0"
         id="path3680"
         style="fill:none;stroke:#ff0000"
         d="m 426.91749,444.718 c 3.95216,2.25006 6.38678,6.40833 6.38678,10.90844" />
      <path
         inkscape:connector-curvature="0"
         id="path3682"
         style="fill:none;stroke:#ff0000"
         d="m 701.35161,442.80106 27.44758,0 0,27.44757 -27.44758,0 0,-27.44757 0,0 0,0 z" />
      <path
         inkscape:connector-curvature="0"
         id="path3684"
         style="fill:none;stroke:#000000"
         d="m 671.1497,405.17167 88.48579,0 0,84.38528 -88.48579,0 0,-84.38528 0,0 0,0 z" />
      <path
         inkscape:connector-curvature="0"
         id="path3726"
         style="fill:none;stroke:#ff0000"
         d="m 406.80692,441.72513 27.44758,0 0,27.44757 -27.44758,0 0,-27.44757 0,0 0,0 z" />
      <path
         inkscape:connector-curvature="0"
         id="path3728"
         style="fill:none;stroke:#000000"
         d="m 376.60501,404.09574 88.4858,0 0,84.38528 -88.4858,0 0,-84.38528 0,0 0,0 z" />
      <path
         inkscape:connector-curvature="0"
         id="path3730"
         style="fill:none;stroke:#000000"
         d="m 522.21741,485.55316 89.18324,0 0,5.45008 -89.18324,0 0,-5.45008 0,0 z" />
      <rect
         y="515.65289"
         x="890.59552"
         height="35.395142"
         width="229.27704"
         id="rect3684"
         style="fill:none;fill-rule:evenodd;stroke:#000000;stroke-width:1.03792918px;stroke-linecap:butt;stroke-linejoin:miter;stroke-opacity:1" />
      <rect
         style="fill:none;fill-rule:evenodd;stroke:#000000;stroke-width:1.03792918px;stroke-linecap:butt;stroke-linejoin:miter;stroke-opacity:1"
         id="rect4492"
         width="229.27704"
         height="35.395142"
         x="891.2962"
         y="365.00461" />
      <rect
         y="419.05954"
         x="892.65118"
         height="69.921074"
         width="28.065613"
         id="rect4494"
         style="fill:none;stroke:#000000;stroke-width:0.9450689;stroke-opacity:1" />
      <rect
         style="fill:none;stroke:#000000;stroke-width:0.9450689;stroke-opacity:1"
         id="rect4496"
         width="28.065613"
         height="69.921074"
         x="942.57452"
         y="419.05954" />
      <rect
         y="419.05954"
         x="992.49774"
         height="69.921074"
         width="28.065613"
         id="rect4498"
         style="fill:none;stroke:#000000;stroke-width:0.9450689;stroke-opacity:1" />
      <rect
         style="fill:none;stroke:#000000;stroke-width:0.9450689;stroke-opacity:1"
         id="rect4500"
         width="28.065613"
         height="69.921074"
         x="1042.421"
         y="419.05954" />
      <rect
         y="419.05954"
         x="1092.3444"
         height="69.921074"
         width="28.065613"
         id="rect4502"
         style="fill:none;stroke:#000000;stroke-width:0.9450689;stroke-opacity:1" />
      <g
         transform="translate(0.49546241,2.477312)"
         id="g4541">
        <ellipse
           ry="5.3128824"
           rx="4.7821264"
           cy="44.524731"
           cx="472.42426"
           id="ellipse4525"
           style="fill:none;stroke:#000000;stroke-width:0.52188289;stroke-opacity:1" />
        <g
           id="g4537"
           transform="matrix(0.94753704,0,0,1.0000666,20.223224,-0.00973202)">
          <ellipse
             ry="5.4124351"
             rx="5.1418138"
             cy="44.636444"
             cx="390.75626"
             id="ellipse4527"
             style="fill:none;stroke:#000000;stroke-width:0.54620045;stroke-opacity:1" />
          <ellipse
             style="fill:none;stroke:#000000;stroke-width:0.54620045;stroke-opacity:1"
             id="ellipse4529"
             cx="390.75626"
             cy="249.4071"
             rx="5.1418138"
             ry="5.4124351" />
        </g>
      </g>
      <g
         transform="translate(1056.64,288.68414)"
         id="g4557">
        <ellipse
           style="fill:none;stroke:#000000;stroke-width:0.53611815;stroke-opacity:1"
           id="path4523"
           cx="250.68066"
           cy="264.94641"
           rx="5.0469017"
           ry="5.3125281" />
        <g
           transform="translate(-221.4717,13.872947)"
           id="g4547">
          <ellipse
             ry="5.3128824"
             rx="4.7821264"
             cy="44.524731"
             cx="472.42426"
             id="ellipse4549"
             style="fill:none;stroke:#000000;stroke-width:0.52188289;stroke-opacity:1" />
          <g
             id="g4551"
             transform="matrix(0.94753704,0,0,1.0000666,20.223224,-0.00973202)">
            <ellipse
               ry="5.4124351"
               rx="5.1418138"
               cy="44.636444"
               cx="390.75626"
               id="ellipse4553"
               style="fill:none;stroke:#000000;stroke-width:0.54620045;stroke-opacity:1" />
            <ellipse
               style="fill:none;stroke:#000000;stroke-width:0.54620045;stroke-opacity:1"
               id="ellipse4555"
               cx="390.75626"
               cy="249.4071"
               rx="5.1418138"
               ry="5.4124351" />
          </g>
        </g>
      </g>
    </g>
  </g>
</svg>
